
<svg version="1.1" xmlns="http://www.w3.org/2000/svg" width="35" height="35" viewBox="0 0 32 32">
<path fill='white' d="M27.851 1.381l-1.284 1.381h-18.336l-0.731 0.666c-0.398 0.374-0.707 0.715-0.691 0.772 0.024 0.049 0.723 0.959 1.552 2.007l1.519 1.917h1.852v2.332l1.917 2.429c1.056 1.34 1.966 2.478 2.015 2.535 0.081 0.081 0.699-0.585 3.112-3.372 1.657-1.909 3.144-3.623 3.315-3.802 0.593-0.634 4.55-5.183 4.623-5.313 0.065-0.106 1.674-1.99 2.348-2.754 0.089-0.098 0.146-0.179 0.122-0.179s-0.626 0.617-1.332 1.381zM21.14 8.514c-0.999 1.113-3.274 3.51-3.331 3.51-0.081 0-0.089-3.77-0.008-3.843 0.024-0.033 0.869-0.057 1.877-0.057h1.82l-0.357 0.39z"></path>
<path fill='white' d="M4.307 6.548c-0.845 0.821-1.519 1.511-1.495 1.535s1.267 0.033 2.762 0.024l2.73-0.024-1.137-1.422c-0.617-0.78-1.17-1.462-1.227-1.519-0.073-0.065-0.455 0.26-1.633 1.405z"></path>
<path fill='white' d="M11.732 16.297c0 2.21 0.033 3.761 0.073 3.737 0.187-0.114 3.055-3.493 3.047-3.591s-3.014-3.932-3.087-3.932c-0.016 0-0.033 1.706-0.033 3.786z"></path>
<path fill='white' d="M17.403 16.208c-0.309 0.325-0.552 0.617-0.552 0.65 0 0.024 0.244 0.366 0.552 0.756l0.544 0.699 0.024-0.658c0.008-0.366 0.008-0.975 0-1.357l-0.024-0.691-0.544 0.601z"></path>
<path fill='white' d="M9.661 24.714c-3.477 3.81-6.434 7.060-6.572 7.214-0.398 0.455 1.357-1.251 5.232-5.078l3.615-3.575 0.081 8.66 5.963-5.654 0.008-2.982v-2.973l-0.942-1.21c-0.52-0.658-0.975-1.235-1.007-1.267-0.032-0.041-2.908 3.047-6.377 6.865z"></path>
</svg>
