
<svg version="1.1" xmlns="http://www.w3.org/2000/svg" width="35" height="35" viewBox="0 0 32 32">
<path d="M14.204 6.555c-0.675 0.578-2.284 1.787-3.582 2.685l-2.347 1.644-0.009 1.52v1.511l0.578 0.418c0.32 0.231 0.596 0.418 0.622 0.418s0.044-0.693 0.044-1.538c0-0.836 0.036-1.573 0.071-1.618 0.036-0.053 0.444-0.373 0.907-0.711s1.502-1.102 2.311-1.689c0.809-0.587 1.52-1.102 1.582-1.138 0.080-0.062 0.107 0.96 0.107 4.996v5.076h-2.418l-0.507-0.427c-0.276-0.24-1.324-1.093-2.338-1.911l-1.84-1.485-0.329 0.284c-0.178 0.16-1.031 0.88-1.893 1.6l-1.564 1.298-0.044-0.942-0.044-0.951-1.111-0.053v3.031h-2.4v0.978h3.129l1.342-1.129c0.747-0.622 1.724-1.44 2.178-1.831 0.578-0.489 0.862-0.675 0.933-0.613 0.24 0.187 1.965 1.573 3.102 2.489l1.218 0.987 3.742 0.089v-7.013c0-5.564-0.027-7.022-0.107-7.013-0.062 0-0.667 0.471-1.333 1.040z"></path>
<path d="M16 6.378v0.889l3.849 2.4c2.107 1.316 3.893 2.418 3.956 2.453 0.080 0.053 0.107-0.107 0.107-0.64v-0.702l-3.84-2.578c-2.116-1.413-3.902-2.604-3.956-2.64-0.089-0.053-0.116 0.142-0.116 0.818z"></path>
<path d="M16 13.729v5.733h5.431l-0.027-1.316-0.027-1.307-1.191-0.053-0.053 1.476-2.711 0.053v-8.116l0.204 0.124c0.107 0.071 1.2 0.738 2.418 1.493 1.227 0.747 2.293 1.422 2.373 1.493 0.142 0.116 0.16 0.409 0.178 3.111l0.027 2.987 0.222-0.009c0.125 0 0.391-0.009 0.604-0.018l0.373-0.009v-6.542l-2.24-1.36c-1.236-0.747-2.818-1.707-3.52-2.133-0.702-0.418-1.431-0.898-1.618-1.058-0.187-0.151-0.364-0.284-0.391-0.284s-0.053 2.578-0.053 5.733z"></path>
<path d="M24.267 15.329v0.667l0.213-0.133c0.24-0.16 0.116-0.231 2.009 1.164 0.222 0.16 1.058 0.773 1.867 1.369l1.467 1.067h2.178v-0.889h-1.555l-1.733-1.262c-3.76-2.729-3.636-2.649-4.053-2.649h-0.391v0.667z"></path>
<path d="M24.507 17.124c-0.018 0.044-0.027 0.187-0.027 0.338 0.009 0.24 0.036 0.267 0.347 0.293l0.329 0.027v-0.356c0-0.356-0.009-0.364-0.302-0.364-0.169 0-0.329 0.027-0.347 0.062z"></path>
<path d="M25.333 17.418v0.356h0.711v-0.711h-0.711v0.356z"></path>
<path d="M6.4 17.595v0.444h0.889v-0.889h-0.889v0.444z"></path>
<path d="M7.467 17.595v0.444h0.889v-0.889h-0.889v0.444z"></path>
<path d="M24.631 17.951c-0.044 0.027-0.107 0.178-0.142 0.329l-0.062 0.293h0.729v-0.356c0-0.329-0.018-0.356-0.231-0.338-0.125 0.009-0.258 0.044-0.293 0.071z"></path>
<path d="M25.333 18.218v0.356h0.356c0.347 0 0.356-0.009 0.356-0.311 0-0.187-0.044-0.311-0.107-0.32-0.062 0-0.222-0.027-0.356-0.044-0.24-0.036-0.249-0.027-0.249 0.32z"></path>
<path d="M6.4 18.662v0.444h0.889v-0.889h-0.889v0.444z"></path>
<path d="M7.467 18.662v0.444h0.889v-0.889h-0.889v0.444z"></path>
<path d="M0.062 19.969c-0.036 0.027-0.062 0.329-0.062 0.667v0.604h1.778v5.244h1.156v-5.244h27.911v1.307c0 1.529 0.116 1.52-1.164 0.027l-0.836-0.987-1.156 0.053-0.027 2.418-0.018 2.427h1.236l0.053-2.489 0.933 1.245 0.933 1.236 0.604 0.009h0.596v-6.578h-15.938c-8.773 0-15.973 0.027-16 0.062z"></path>
<path d="M4.089 24.084v2.4h2.933v-0.978h-1.778v-0.978h1.778v-0.978h-1.778v-0.889h1.778v-0.978h-2.933v2.4z"></path>
<path d="M24.009 21.809c-0.444 0.16-0.915 0.596-1.164 1.084-0.187 0.364-0.222 0.56-0.222 1.191 0 0.649 0.036 0.818 0.24 1.209 0.258 0.498 0.738 0.924 1.218 1.084 1.493 0.516 2.951-1.102 2.587-2.853-0.276-1.324-1.52-2.133-2.658-1.716zM25.075 22.973c0.809 0.427 0.8 1.778-0.018 2.205-0.382 0.195-0.747 0.142-1.075-0.178-0.631-0.604-0.444-1.751 0.329-2.071 0.267-0.116 0.471-0.107 0.765 0.044z"></path>
<path fill='red' d="M8.356 21.835c0 0.044 0.24 0.569 0.533 1.173s0.533 1.164 0.533 1.245c0 0.080-0.258 0.596-0.569 1.138l-0.578 1.005h1.191l0.267-0.444c0.142-0.249 0.284-0.444 0.32-0.444s0.151 0.222 0.267 0.489l0.213 0.489h1.191l-0.525-1.076c-0.444-0.898-0.516-1.102-0.435-1.262 0.053-0.098 0.373-0.649 0.711-1.227s0.613-1.076 0.613-1.102c0-0.027-0.258-0.044-0.578-0.044h-0.578l-0.373 0.667c-0.213 0.364-0.4 0.667-0.427 0.667s-0.195-0.302-0.382-0.667l-0.329-0.667h-0.533c-0.293 0-0.533 0.027-0.533 0.062z"></path>
<path d="M12.889 22.218v0.444h1.333v3.822h1.156v-3.822h1.333v-0.889h-3.822v0.444z"></path>
<path d="M17.955 24.173v2.311h1.245v-0.693l0.009-0.684 0.64 0.693 0.64 0.684h0.604c0.329 0 0.596-0.018 0.596-0.044s-0.284-0.4-0.631-0.827l-0.622-0.773 0.329-0.098c0.871-0.249 1.227-1.529 0.604-2.196-0.453-0.489-1.164-0.684-2.524-0.684h-0.889v2.311zM20.267 22.795c0.836 0.435 0.418 1.555-0.578 1.555-0.364 0-0.489-0.222-0.489-0.889 0-0.489 0.036-0.631 0.16-0.702 0.222-0.133 0.613-0.116 0.907 0.036z"></path>
</svg>