<svg xmlns="http://www.w3.org/2000/svg" aria-hidden="true" style="position:absolute;width:0;height:0;overflow:hidden; display:none">
  <defs>
    <symbol id="mail" viewBox="0 0 31 32">
      <path d="M7.32.015C3.286.015 0 3.376 0 7.504v16.475c0 4.127 3.286 7.489 7.32 7.489h16.105c4.034 0 7.32-3.361 7.32-7.489V7.504c0-4.127-3.286-7.489-7.32-7.489H7.32zm0 1.497h16.105c3.243 0 5.856 2.673 5.856 5.991v16.475c0 3.318-2.613 5.991-5.856 5.991H7.32c-3.243 0-5.856-2.673-5.856-5.991V7.503c0-3.318 2.613-5.991 5.856-5.991zm-.732 6.74c-1.204 0-2.196 1.015-2.196 2.247v10.484c0 1.232.992 2.247 2.196 2.247h17.569c1.204 0 2.196-1.015 2.196-2.247V10.499c0-1.232-.992-2.247-2.196-2.247H6.588zm.303 1.498h16.961l-6.52 6.659a2.727 2.727 0 0 1-3.933-.002L6.891 9.749zm17.998 1.057v9.867l-4.83-4.933 4.83-4.933zm-19.033.002 4.821 4.932-4.821 4.932v-9.864zm13.168 5.989 4.83 4.933H6.892l4.821-4.932.652.667a4.189 4.189 0 0 0 6.002.003l.658-.671z"/>
    </symbol>
    <symbol id="facebook" viewBox="0 0 32 32">
      <path d="M3.756.37C1.691.37 0 2.064 0 4.134v24.091c0 2.07 1.69 3.764 3.756 3.764H16.4a.774.774 0 0 0 .245 0h4.262a.774.774 0 0 0 .245 0h6.642c2.065 0 3.756-1.694 3.756-3.764V4.134c0-2.07-1.691-3.764-3.756-3.764H3.756zm0 1.506h24.038a2.245 2.245 0 0 1 2.254 2.258v24.091c0 1.256-1 2.259-2.254 2.259h-6.009v-10.54h2.87l1.052-5.27h-3.922v-1.506c0-.42.04-.453.18-.544s.575-.209 1.322-.209h2.254V8.176l-.428-.204s-1.725-.826-4.079-.826c-1.69 0-3.079.675-3.967 1.788s-1.291 2.604-1.291 4.235v1.506h-2.254v5.27h2.254v10.54H3.757a2.245 2.245 0 0 1-2.254-2.259V4.135c0-1.256 1-2.259 2.254-2.259zm17.277 6.775c1.562 0 2.544.345 3.005.528v1.731h-.751c-.864 0-1.557.072-2.141.451s-.864 1.101-.864 1.807v3.011h3.59l-.45 2.259h-3.14v12.045h-3.005V18.438h-2.254v-2.259h2.254v-3.011c0-1.38.349-2.525.962-3.294s1.479-1.223 2.793-1.223z"/>
    </symbol>
    <symbol id="instagram" viewBox="0 0 32 32">
      <path d="M9.321.052C4.182.052 0 4.245 0 9.397v12.939c0 5.152 4.182 9.345 9.321 9.345h12.907c5.139 0 9.321-4.193 9.321-9.345V9.397c0-5.152-4.182-9.345-9.321-9.345H9.321zm0 1.437h12.907c4.364 0 7.887 3.532 7.887 7.907v12.939c0 4.375-3.523 7.907-7.887 7.907H9.321c-4.364 0-7.887-3.532-7.887-7.907V9.397c0-4.375 3.523-7.907 7.887-7.907zm13.107 3.472a1.643 1.643 0 1 0 0 3.287 1.643 1.643 0 0 0 0-3.287zm-6.553 3.037c-4.553 0-8.253 3.688-8.253 8.226s3.7 8.226 8.253 8.226c4.554 0 8.253-3.688 8.253-8.226s-3.699-8.226-8.253-8.226zm0 1.436a6.775 6.775 0 0 1 6.806 6.79 6.775 6.775 0 0 1-6.806 6.789 6.775 6.775 0 0 1-6.806-6.79 6.775 6.775 0 0 1 6.806-6.789z"/>
    </symbol>
   <symbol id="phone" viewBox="0 0 31 32">
<path d="M7.32 0.515c-4.034 0-7.32 3.361-7.32 7.489v16.475c0 4.127 3.286 7.489 7.32 7.489h16.105c4.034 0 7.32-3.361 7.32-7.489v-16.475c0-4.127-3.286-7.489-7.32-7.489h-16.105zM7.32 2.013h16.105c3.243 0 5.856 2.673 5.856 5.991v16.475c0 3.318-2.613 5.991-5.856 5.991h-16.105c-3.243 0-5.856-2.673-5.856-5.991v-16.475c0-3.318 2.613-5.991 5.856-5.991zM10.284 5.791c-1.497-0.066-2.634 0.516-3.348 1.215-0.357 0.35-0.615 0.724-0.792 1.074s-0.289 0.637-0.289 1.012c0-0.033-0.008 0.142-0.013 0.345s-0.004 0.478 0.014 0.809c0.037 0.663 0.146 1.559 0.438 2.621 0.582 2.125 1.894 4.912 4.738 7.822s5.569 4.251 7.646 4.847c1.039 0.298 1.914 0.41 2.562 0.448 0.324 0.019 0.59 0.020 0.789 0.015s0.371-0.013 0.339-0.013c0.366 0 0.648-0.115 0.989-0.295s0.707-0.445 1.049-0.81c0.684-0.731 1.253-1.894 1.188-3.425-0.031-0.73-0.427-1.377-1.012-1.761-0.452-0.296-1.154-0.757-2.070-1.356-1.063-0.695-2.423-0.744-3.531-0.123l0.063-0.032-0.862 0.379-0.063 0.045c-0.21 0.151-0.469 0.178-0.705 0.078-0.66-0.283-1.69-0.838-2.646-1.817s-1.5-2.032-1.776-2.707c-0.099-0.241-0.071-0.507 0.076-0.721l0.044-0.064 0.37-0.882-0.031 0.064c0.607-1.134 0.56-2.525-0.12-3.613-0.586-0.937-1.036-1.655-1.325-2.118-0.375-0.599-1.007-1.004-1.721-1.036zM10.221 7.287c0.205 0.009 0.417 0.132 0.552 0.347 0.29 0.463 0.74 1.181 1.325 2.118 0.388 0.621 0.416 1.438 0.069 2.086l-0.017 0.032-0.353 0.844 0.073-0.136c-0.433 0.63-0.52 1.449-0.229 2.16 0.33 0.807 0.961 2.032 2.092 3.189s2.328 1.802 3.117 2.14c0.695 0.297 1.496 0.209 2.112-0.234l-0.133 0.075 0.825-0.361 0.031-0.018c0.633-0.355 1.431-0.325 2.039 0.072v-0.002c0.915 0.599 1.618 1.059 2.070 1.356 0.21 0.138 0.33 0.355 0.339 0.565 0.048 1.137-0.338 1.849-0.784 2.326-0.223 0.238-0.464 0.411-0.663 0.516s-0.39 0.127-0.317 0.127c-0.134 0-0.205 0.009-0.373 0.013s-0.394 0.004-0.672-0.012c-0.557-0.032-1.325-0.129-2.25-0.395-1.851-0.531-4.331-1.728-7.006-4.464s-3.845-5.274-4.364-7.167c-0.259-0.947-0.355-1.733-0.386-2.302-0.016-0.285-0.016-0.515-0.011-0.687s0.013-0.244 0.013-0.382c0 0.074 0.021-0.121 0.124-0.325s0.272-0.451 0.505-0.679c0.466-0.456 1.162-0.851 2.273-0.801z"></path>
</symbol>
    <symbol id="location" viewBox="0 0 32 32">
      <path d="M16 0C9.37 0 4 5.37 4 12s12 20 12 20 12-13.63 12-20S22.63 0 16 0zm0 6c3.31 0 6 2.69 6 6s-2.69 6-6 6-6-2.69-6-6 2.69-6 6-6z"/>
    </symbol>
 <symbol id="textron-logo" viewBox="0 0 32 32">
<path d="M12.395 2.502v1.982l-1.289-0.043c-0.711-0.018-1.629-0.055-2.036-0.079l-0.748-0.036v1.903h-3.763c-3.532 0-3.763 0.006-3.787 0.103-0.024 0.103 1.301 5.501 3.672 15.002l0.991 3.951 0.061 6.2h4.863c2.675 0 7.319-0.006 10.322-0.018l5.465-0.012-0.036-2.997-0.036-2.991 0.614-2.492c0.34-1.374 1.404-5.659 2.371-9.537 1.337-5.373 1.732-7.063 1.684-7.142-0.055-0.091-0.176-0.097-0.985-0.085-0.505 0.012-2.237 0.024-3.848 0.036l-2.936 0.018v-1.678h-4.316l-0.012-1.599c-0.012-0.875-0.012-1.793-0.006-2.036l0.012-0.438h-6.255v1.988zM18.291 2.703v1.884h-1.599l0.043 2.808c0.018 1.55 0.049 5.355 0.067 8.467 0.018 3.106 0.049 6.152 0.067 6.766l0.036 1.106h0.31l-0.036-5.854c-0.024-3.216-0.061-7.452-0.085-9.422l-0.036-3.568h1.216l0.036 1.927c0.024 1.058 0.043 2.778 0.043 3.817s0.018 3.501 0.043 5.459l0.036 3.568h0.359l-0.036-3.301c-0.018-1.811-0.055-5.136-0.073-7.386l-0.036-4.085h3.963v1.398h-2.936l0.036 3.234c0.024 1.781 0.061 5.848 0.085 9.027l0.036 5.793h-8.145l-0.036-5.124c-0.024-2.814-0.061-6.875-0.085-9.027l-0.036-3.902h-0.736c-0.407 0-1.039-0.018-1.41-0.036l-0.675-0.043-0.043-0.729c-0.018-0.407-0.018-0.754 0.006-0.778 0.030-0.024 0.875-0.012 1.878 0.024l1.836 0.061 0.036 1.070c0.018 0.59 0.055 3.933 0.073 7.434l0.036 6.37h0.365l-0.036-4.972c-0.018-2.729-0.055-6.066-0.073-7.416l-0.036-2.444h1.398l0.036 0.559c0.018 0.31 0.049 3.258 0.067 6.553s0.049 7.294 0.073 8.887l0.036 2.906h0.346l-0.036-2.875c-0.018-1.574-0.055-5.872-0.085-9.55-0.030-3.671-0.073-6.693-0.091-6.717-0.024-0.018-0.419-0.049-0.887-0.055l-0.845-0.024v-3.696h5.532v1.884zM30.387 6.545c0 0.043-0.693 2.869-1.544 6.279-0.845 3.41-1.836 7.398-2.2 8.863l-0.663 2.656h-5.787l-0.036-4.577c-0.024-2.51-0.061-6.504-0.085-8.869l-0.036-4.292 1.27-0.024c0.699-0.012 1.276-0.018 1.289-0.012 0.018 0.006 0.134 12.242 0.134 14.868v2.298h0.383l-0.043-4.82c-0.018-2.644-0.055-6.516-0.079-8.595l-0.036-3.787 2.881-0.018c1.587-0.006 3.258-0.018 3.72-0.030 0.632-0.006 0.833 0.006 0.833 0.061zM8.334 10.119c0.024 1.957 0.061 5.817 0.085 8.583l0.036 5.033h0.371l-0.036-3.118c-0.024-1.708-0.061-5.574-0.079-8.589l-0.043-5.471 1.24 0.024c0.681 0.012 1.246 0.036 1.258 0.043 0.012 0.012 0.055 4 0.091 8.869l0.073 8.85-2.845 0.012c-1.568 0.012-2.869 0.006-2.899-0.012-0.024-0.018-0.462-1.702-0.966-3.738-2.121-8.547-3.471-14.017-3.471-14.042 0-0.018 1.605-0.024 3.574-0.018l3.568 0.018 0.043 3.556zM25.719 27.881c-0.006 1.678-0.024 3.058-0.030 3.064s-4.48 0.030-9.932 0.055l-9.926 0.036-0.006-2.784c-0.006-1.532-0.018-2.906-0.018-3.058-0.006-0.152 0-0.292 0.012-0.322 0.012-0.024 4.498-0.043 9.969-0.043h9.951l-0.018 3.051z"></path>
<path d="M20.151 25.923c-0.632 0.188-0.991 1.313-0.839 2.583 0.085 0.681 0.225 1.033 0.523 1.289 0.492 0.438 1.149 0.274 1.459-0.365s0.346-2.128 0.067-2.802c-0.14-0.328-0.438-0.632-0.687-0.705-0.255-0.067-0.286-0.067-0.523 0zM20.625 26.434c0.146 0.061 0.243 0.17 0.346 0.377 0.134 0.274 0.146 0.371 0.146 1.179 0 0.827-0.012 0.9-0.152 1.155-0.182 0.322-0.395 0.462-0.632 0.401-0.468-0.116-0.669-0.669-0.632-1.732 0.024-0.827 0.158-1.204 0.492-1.368 0.237-0.116 0.188-0.116 0.432-0.012z"></path>
<path d="M7.288 26.166v0.243h0.912v3.586h0.425v-3.586h0.851v-0.486h-2.188v0.243z"></path>
<path d="M9.902 27.96v2.036h1.83l-0.018-0.225-0.018-0.231-1.435-0.036 0.036-1.362 1.185-0.036v-0.413l-1.185-0.036-0.018-0.626-0.018-0.62h1.404v-0.486h-1.763v2.036z"></path>
<path d="M11.969 25.996c0 0.043 0.188 0.498 0.419 1.015l0.419 0.936-0.109 0.249c-0.061 0.14-0.261 0.59-0.45 1.003-0.188 0.419-0.34 0.766-0.34 0.778s0.103 0.018 0.237 0.018h0.231l0.322-0.729c0.176-0.401 0.34-0.729 0.359-0.729s0.17 0.316 0.34 0.705c0.164 0.389 0.334 0.717 0.371 0.736 0.043 0.012 0.152 0.018 0.255 0.006l0.176-0.018-0.9-2.018 0.425-0.966c0.237-0.529 0.432-0.985 0.432-1.015 0-0.024-0.103-0.043-0.225-0.030-0.225 0.018-0.231 0.018-0.523 0.687-0.158 0.365-0.316 0.687-0.34 0.717-0.024 0.024-0.182-0.28-0.353-0.669-0.31-0.711-0.31-0.717-0.529-0.735-0.152-0.012-0.219 0.006-0.219 0.061z"></path>
<path d="M14.4 26.166v0.243h0.851v3.586h0.425v-3.586h0.912v-0.486h-2.188v0.243z"></path>
<path d="M16.954 27.954v2.042h0.359l0.018-0.808 0.018-0.802 0.614-0.036 0.304 0.808 0.298 0.808 0.231 0.018c0.122 0.012 0.225 0.012 0.225 0s-0.146-0.401-0.328-0.869l-0.328-0.851 0.17-0.17c0.505-0.498 0.419-1.732-0.14-2.030-0.134-0.073-0.383-0.109-0.815-0.128l-0.626-0.024v2.042zM18.139 26.47c0.328 0.128 0.444 0.796 0.195 1.161-0.116 0.176-0.188 0.213-0.48 0.261-0.541 0.085-0.535 0.091-0.535-0.754v-0.729h0.328c0.182 0 0.401 0.024 0.492 0.061z"></path>
<path d="M22.060 27.954v2.042h0.425v-3.009l0.687 1.501 0.681 1.508h0.395v-4.073h-0.365l-0.006 1.501c0 1.021-0.018 1.477-0.061 1.416-0.036-0.049-0.346-0.723-0.693-1.489l-0.632-1.398-0.213-0.018-0.219-0.018v2.036z"></path>
</symbol>
<symbol id="clock" viewBox="0 0 23 32">
<path d="M9.273 7.104c-1.44 0.366-3.497 1.6-4.503 2.674-0.503 0.549-1.257 1.691-1.646 2.537-0.663 1.394-0.731 1.737-0.731 3.726 0 2.057 0.046 2.263 0.846 3.909 1.029 2.080 2.354 3.36 4.48 4.366 1.394 0.663 1.737 0.731 3.703 0.731s2.309-0.069 3.703-0.731c2.126-1.006 3.451-2.286 4.48-4.366 0.8-1.646 0.846-1.851 0.846-3.931s-0.046-2.286-0.846-3.931c-1.554-3.109-4.297-4.96-7.68-5.12-0.96-0.046-2.149 0.023-2.651 0.137zM12.062 12.636l0.046 4.069h-3.177c-2.537 0-3.223-0.069-3.451-0.343s-0.229-0.411 0-0.686c0.206-0.251 0.914-0.343 2.697-0.389l2.446-0.069 0.069-3.086c0.023-1.691 0.091-3.223 0.16-3.383s0.343-0.274 0.617-0.229c0.526 0.069 0.526 0.114 0.594 4.114z"></path>
</symbol>
<symbol id="document" viewBox="0 0 23 32">
<path d="M4.336 6.446c-0.348 0.394-0.394 1.391-0.394 9.6 0 8.58 0.023 9.183 0.417 9.53 0.371 0.348 1.229 0.394 7.281 0.394 6.33 0 6.864-0.023 7.212-0.417 0.348-0.371 0.394-1.229 0.394-7.328v-6.887l-2.667-2.667-2.667-2.643h-4.591c-4.174 0-4.638 0.046-4.986 0.417zM15.745 12.012c-1.043 0.046-2.041 0.023-2.226-0.046-0.209-0.093-0.301-0.696-0.301-2.272v-2.157l2.203 2.203 2.226 2.203-1.901 0.070zM16.023 16.371c0.209 0.255 0.232 0.464 0.046 0.742-0.209 0.348-0.788 0.394-4.22 0.464-3.942 0.046-4.893-0.093-4.893-0.719 0-0.765 0.557-0.858 4.661-0.858 3.455 0 4.151 0.046 4.406 0.371zM14.377 19.362c0.139 0.186 0.232 0.51 0.185 0.742-0.070 0.371-0.394 0.417-3.641 0.417-3.084 0-3.594-0.046-3.803-0.394-0.186-0.278-0.162-0.487 0.046-0.742 0.441-0.533 6.771-0.557 7.212-0.023z"></path>
</symbol>
<symbol id="constructing" viewBox="0 0 32 32">
<path d="M8.639 6.257c-0.096 0.072-0.167 0.406-0.167 0.716 0 0.478-0.119 0.549-0.931 0.549-1.122 0-1.504 0.43-1.409 1.481 0.072 0.74 0.143 0.788 1.146 0.907 0.979 0.119 1.075 0.191 1.194 0.836 0.096 0.573 0.263 0.74 0.788 0.788l0.645 0.072v5.134c0 4.752-0.024 5.11-0.43 5.11-0.597 0-1.003 0.454-1.003 1.122 0 0.406-0.143 0.549-0.549 0.549-0.716 0-1.122 0.43-1.122 1.218 0 1.099 0.358 1.194 4.561 1.122l3.916-0.072 0.215-0.669c0.31-0.86-0.048-1.457-0.884-1.552-0.478-0.048-0.645-0.239-0.693-0.716-0.048-0.502-0.263-0.693-0.836-0.884l-0.788-0.215v-10.173h0.549c0.693 0 1.122-0.43 1.122-1.122v-0.573l6.328 0.143 0.072 0.764 0.072 0.788h-1.433c-1.17 0-1.481 0.096-1.696 0.454-0.167 0.358-0.143 0.549 0.143 0.836 0.549 0.549 6.806 0.549 7.355 0 0.812-0.788 0.191-1.29-1.6-1.29h-1.385l0.072-0.788 0.072-0.764 3.821-0.239 0.072-0.836c0.143-1.385-0.096-1.433-6.304-1.433h-5.54l-0.716-0.716c-0.693-0.669-0.836-0.716-2.627-0.716-1.027 0-1.958 0.072-2.030 0.167zM12.006 7.809c0.167 0.167 0.287 0.693 0.287 1.194v0.907h-2.388v-1.027c0-0.573 0.072-1.122 0.167-1.194 0.263-0.287 1.624-0.191 1.934 0.119z"></path>
<path d="M19.027 14.973c-0.167 0.167-0.287 0.525-0.287 0.836 0 0.43-0.143 0.549-0.597 0.549-0.334 0-0.693 0.191-0.836 0.454-0.358 0.693-0.31 8.454 0.048 8.812 0.191 0.191 1.385 0.287 3.821 0.287 3.224 0 3.534-0.048 3.773-0.454 0.358-0.669 0.31-6.782-0.048-7.14-0.167-0.167-0.525-0.287-0.836-0.287-0.502 0-0.549-0.096-0.549-1.433 0-1.146-0.096-1.457-0.454-1.672-0.764-0.382-1.218 0.287-1.218 1.815 0 0.884-0.096 1.29-0.31 1.29-0.406 0-1.122-1.242-1.122-1.982 0-0.573-0.549-1.361-0.931-1.361-0.096 0-0.287 0.119-0.454 0.287zM20.364 20.346c0.072 0.764 0.048 0.788-0.764 0.788-0.836 0-0.86-0.024-0.86-0.86 0-0.812 0.024-0.836 0.788-0.764 0.669 0.072 0.764 0.167 0.836 0.836zM23.516 20.299c0 0.788-0.048 0.836-0.836 0.836-0.764 0-0.836-0.072-0.836-0.669 0-0.382 0.072-0.764 0.167-0.836 0.072-0.096 0.454-0.167 0.836-0.167 0.597 0 0.669 0.072 0.669 0.836zM20.412 23.522c0 0.669-0.072 0.716-0.836 0.716s-0.836-0.048-0.836-0.716c0-0.669 0.072-0.716 0.836-0.716s0.836 0.048 0.836 0.716zM23.516 23.522c0 0.669-0.072 0.716-0.836 0.716s-0.836-0.048-0.836-0.716c0-0.669 0.072-0.716 0.836-0.716s0.836 0.048 0.836 0.716z"></path>
</symbol>
<symbol id="area-icon" viewBox="0 0 32 32">
<path d="M5.017 5.001c-0.704 0.704-0.832 1.088-0.768 2.144l0.096 1.312 4.896 0.096c5.568 0.096 5.824 0 5.824-2.176 0-2.080-0.32-2.24-5.056-2.24-4.064 0-4.16 0-4.992 0.864z"></path>
<path d="M17.401 4.617c-0.576 0.608-0.512 2.976 0.064 3.552 0.352 0.384 1.408 0.448 5.344 0.384l4.896-0.096 0.096-1.312c0.064-1.056-0.064-1.44-0.768-2.144-0.832-0.864-0.928-0.864-5.056-0.864-3.2 0.032-4.288 0.128-4.576 0.48z"></path>
<path d="M4.313 10.985c-0.096 0.224-0.128 1.216-0.064 2.144l0.096 1.728 1.696 0.096c1.152 0.064 1.824-0.032 2.144-0.384 0.608-0.608 0.608-2.976 0.032-3.584-0.608-0.608-3.68-0.608-3.904 0z"></path>
<path d="M11.001 11.017c-0.576 0.608-0.512 2.976 0.032 3.552 0.672 0.64 9.312 0.64 9.984 0 0.576-0.608 0.576-2.976 0-3.584-0.672-0.64-9.44-0.64-10.016 0.032z"></path>
<path d="M23.801 11.017c-0.576 0.64-0.512 2.976 0.064 3.552 0.32 0.352 0.992 0.448 2.144 0.384l1.696-0.096v-4.16l-1.76-0.064c-1.216-0.064-1.888 0.064-2.144 0.384z"></path>
<path d="M4.313 17.385c-0.096 0.224-0.128 1.216-0.064 2.144l0.096 1.728 4.896 0.096c5.568 0.096 5.824 0 5.824-2.176 0-2.144-0.256-2.24-5.76-2.24-3.776 0-4.864 0.096-4.992 0.448z"></path>
<path d="M17.401 17.417c-0.576 0.608-0.512 2.976 0.064 3.552 0.352 0.384 1.408 0.448 5.344 0.384l4.896-0.096v-4.16l-4.96-0.064c-3.968-0.064-5.024 0-5.344 0.384z"></path>
<path d="M4.409 23.561c-0.128 0.096-0.224 0.736-0.224 1.376 0 2.176 2.656 3.776 4.032 2.432 0.576-0.608 0.576-2.976 0-3.584-0.48-0.448-3.424-0.64-3.808-0.224z"></path>
<path d="M11.001 23.817c-0.576 0.608-0.512 2.976 0.032 3.552 0.672 0.64 9.312 0.64 9.984 0 0.576-0.608 0.576-2.976 0-3.584-0.672-0.64-9.44-0.64-10.016 0.032z"></path>
<path d="M23.801 23.817c-0.576 0.608-0.512 2.976 0.032 3.552 0.768 0.736 2.24 0.544 3.2-0.416 0.704-0.704 0.832-1.088 0.768-2.144l-0.096-1.312-1.76-0.064c-1.216-0.064-1.888 0.064-2.144 0.384z"></path>
</symbol>
<symbol id="calendar" viewBox="0 0 32 32">
<path d="M4.832 4.128c-0.416 0.576-0.672 1.44-0.672 2.272 0 0.928-0.256 1.632-0.8 2.368-0.864 1.12-0.96 1.888-0.512 3.68 0.992 3.84 1.248 5.696 0.992 6.912-0.16 0.704-0.384 1.696-0.48 2.24-0.096 0.512-0.352 1.696-0.544 2.624-0.416 2.016-0.032 3.232 1.312 4.032 0.832 0.48 2.176 0.544 11.872 0.544 12.064 0 12.224-0.032 13.088-1.984 0.352-0.768 0.352-1.312 0.096-2.624-0.192-0.896-0.448-2.080-0.544-2.592-0.096-0.544-0.32-1.536-0.48-2.24-0.256-1.216 0-3.072 0.992-6.912 0.448-1.792 0.352-2.56-0.512-3.68-0.544-0.736-0.8-1.44-0.8-2.368 0-0.832-0.256-1.696-0.672-2.272l-0.64-0.928h-21.056l-0.64 0.928zM25.6 6.4v0.96h-19.2v-1.92h19.2v0.96zM15.584 14.88c0.224 0.256 0.416 1.088 0.416 1.888v1.472h2.24c2.208 0 2.24 0 2.24-0.832 0-0.8-0.064-0.832-1.12-0.64-1.024 0.192-1.12 0.16-1.12-0.544 0-0.64 0.288-0.832 2.016-1.408l1.984-0.672 0.192 4.096h1.536c1.184 0 1.632 0.128 1.792 0.544 0.416 1.056 1.216 5.024 1.248 6.336l0.032 1.28h-22.080l0.032-1.28c0.032-1.312 0.832-5.28 1.248-6.336 0.192-0.448 0.672-0.544 2.912-0.544 2.464 0 2.688 0.064 2.688 0.64 0 0.416 0.288 0.704 0.896 0.832 1.536 0.32 1.664 0.416 1.664 1.184 0 1.504-1.632 2.048-2.656 0.864-0.672-0.8-2.144-0.864-2.144-0.096 0 0.288 0.448 0.928 1.024 1.44 1.824 1.632 5.12 0.896 5.536-1.216 0.192-1.12-0.288-2.688-0.832-2.688-0.192 0-0.288-0.224-0.16-0.48 0.096-0.32-0.032-0.48-0.448-0.48-0.32 0-0.704-0.16-0.8-0.32-0.096-0.192-0.032-0.32 0.128-0.32 0.704 0 0.352-1.504-0.416-1.856-0.64-0.288-0.928-0.224-1.568 0.288-0.8 0.608-1.856 0.8-2.24 0.416-0.448-0.48 0.864-1.952 1.984-2.272 1.28-0.32 3.072 0.032 3.776 0.704z"></path>
<path d="M20.48 20.608c0 2.912 0.16 3.392 1.152 3.392 0.768 0 0.768-0.064 0.768-2.88v-2.88h-1.92v2.368z"></path>
</symbol>
<symbol id="google-logo" viewBox="0 0 95 32">
<path fill="#ea4335" style="fill: var(--color1, #ea4335)" d="M40.261 16.41c0 4.442-3.475 7.715-7.739 7.715s-7.739-3.273-7.739-7.715c0-4.473 3.475-7.715 7.739-7.715s7.739 3.242 7.739 7.715zM36.873 16.41c0-2.776-2.014-4.675-4.351-4.675s-4.351 1.899-4.351 4.675c0 2.748 2.014 4.675 4.351 4.675s4.351-1.93 4.351-4.675z"></path>
<path fill="#fbbc05" style="fill: var(--color2, #fbbc05)" d="M56.957 16.41c0 4.442-3.475 7.715-7.739 7.715s-7.739-3.273-7.739-7.715c0-4.47 3.475-7.715 7.739-7.715s7.739 3.242 7.739 7.715zM53.569 16.41c0-2.776-2.014-4.675-4.351-4.675s-4.351 1.899-4.351 4.675c0 2.748 2.014 4.675 4.351 4.675s4.351-1.93 4.351-4.675z"></path>
<path fill="#4285f4" style="fill: var(--color3, #4285f4)" d="M72.957 9.162v13.85c0 5.697-3.36 8.024-7.332 8.024-3.739 0-5.99-2.501-6.838-4.546l2.95-1.228c0.525 1.256 1.812 2.737 3.885 2.737 2.543 0 4.118-1.569 4.118-4.522v-1.11h-0.118c-0.758 0.936-2.219 1.753-4.063 1.753-3.857 0-7.391-3.36-7.391-7.683 0-4.355 3.534-7.743 7.391-7.743 1.84 0 3.301 0.817 4.063 1.725h0.118v-1.256h3.217zM69.979 16.438c0-2.717-1.812-4.703-4.118-4.703-2.337 0-4.296 1.986-4.296 4.703 0 2.689 1.958 4.647 4.296 4.647 2.306 0 4.118-1.958 4.118-4.647z"></path>
<path fill="#34a853" style="fill: var(--color4, #34a853)" d="M78.261 1.043v22.609h-3.304v-22.609h3.304z"></path>
<path fill="#ea4335" style="fill: var(--color1, #ea4335)" d="M91.137 18.95l2.63 1.753c-0.849 1.256-2.894 3.419-6.428 3.419-4.383 0-7.656-3.388-7.656-7.715 0-4.588 3.301-7.715 7.277-7.715 4.003 0 5.962 3.186 6.602 4.908l0.351 0.877-10.313 4.271c0.79 1.548 2.017 2.337 3.739 2.337 1.725 0 2.922-0.849 3.798-2.136zM83.043 16.174l6.894-2.863c-0.379-0.963-1.52-1.635-2.863-1.635-1.722 0-4.118 1.52-4.031 4.497z"></path>
<path fill="#4285f4" style="fill: var(--color3, #4285f4)" d="M12.275 14.403v-3.273h11.030c0.108 0.57 0.163 1.245 0.163 1.976 0 2.456-0.671 5.492-2.835 7.656-2.104 2.191-4.793 3.36-8.355 3.36-6.602 0-12.153-5.377-12.153-11.979s5.551-11.979 12.153-11.979c3.652 0 6.254 1.433 8.209 3.301l-2.31 2.31c-1.402-1.315-3.301-2.337-5.903-2.337-4.821 0-8.591 3.885-8.591 8.706s3.77 8.706 8.591 8.706c3.127 0 4.908-1.256 6.049-2.397 0.925-0.925 1.534-2.247 1.774-4.052l-7.823 0.003z"></path>
</symbol>
  </defs>
</svg>
