<svg xmlns="http://www.w3.org/2000/svg" aria-hidden="true" style="position:absolute;width:0;height:0;overflow:hidden; display:none">
  <defs>
    <symbol id="mail" viewBox="0 0 31 32">
      <path d="M7.32.015C3.286.015 0 3.376 0 7.504v16.475c0 4.127 3.286 7.489 7.32 7.489h16.105c4.034 0 7.32-3.361 7.32-7.489V7.504c0-4.127-3.286-7.489-7.32-7.489H7.32zm0 1.497h16.105c3.243 0 5.856 2.673 5.856 5.991v16.475c0 3.318-2.613 5.991-5.856 5.991H7.32c-3.243 0-5.856-2.673-5.856-5.991V7.503c0-3.318 2.613-5.991 5.856-5.991zm-.732 6.74c-1.204 0-2.196 1.015-2.196 2.247v10.484c0 1.232.992 2.247 2.196 2.247h17.569c1.204 0 2.196-1.015 2.196-2.247V10.499c0-1.232-.992-2.247-2.196-2.247H6.588zm.303 1.498h16.961l-6.52 6.659a2.727 2.727 0 0 1-3.933-.002L6.891 9.749zm17.998 1.057v9.867l-4.83-4.933 4.83-4.933zm-19.033.002 4.821 4.932-4.821 4.932v-9.864zm13.168 5.989 4.83 4.933H6.892l4.821-4.932.652.667a4.189 4.189 0 0 0 6.002.003l.658-.671z"/>
    </symbol>
    <symbol id="facebook" viewBox="0 0 32 32">
      <path d="M3.756.37C1.691.37 0 2.064 0 4.134v24.091c0 2.07 1.69 3.764 3.756 3.764H16.4a.774.774 0 0 0 .245 0h4.262a.774.774 0 0 0 .245 0h6.642c2.065 0 3.756-1.694 3.756-3.764V4.134c0-2.07-1.691-3.764-3.756-3.764H3.756zm0 1.506h24.038a2.245 2.245 0 0 1 2.254 2.258v24.091c0 1.256-1 2.259-2.254 2.259h-6.009v-10.54h2.87l1.052-5.27h-3.922v-1.506c0-.42.04-.453.18-.544s.575-.209 1.322-.209h2.254V8.176l-.428-.204s-1.725-.826-4.079-.826c-1.69 0-3.079.675-3.967 1.788s-1.291 2.604-1.291 4.235v1.506h-2.254v5.27h2.254v10.54H3.757a2.245 2.245 0 0 1-2.254-2.259V4.135c0-1.256 1-2.259 2.254-2.259zm17.277 6.775c1.562 0 2.544.345 3.005.528v1.731h-.751c-.864 0-1.557.072-2.141.451s-.864 1.101-.864 1.807v3.011h3.59l-.45 2.259h-3.14v12.045h-3.005V18.438h-2.254v-2.259h2.254v-3.011c0-1.38.349-2.525.962-3.294s1.479-1.223 2.793-1.223z"/>
    </symbol>
    <symbol id="instagram" viewBox="0 0 32 32">
      <path d="M9.321.052C4.182.052 0 4.245 0 9.397v12.939c0 5.152 4.182 9.345 9.321 9.345h12.907c5.139 0 9.321-4.193 9.321-9.345V9.397c0-5.152-4.182-9.345-9.321-9.345H9.321zm0 1.437h12.907c4.364 0 7.887 3.532 7.887 7.907v12.939c0 4.375-3.523 7.907-7.887 7.907H9.321c-4.364 0-7.887-3.532-7.887-7.907V9.397c0-4.375 3.523-7.907 7.887-7.907zm13.107 3.472a1.643 1.643 0 1 0 0 3.287 1.643 1.643 0 0 0 0-3.287zm-6.553 3.037c-4.553 0-8.253 3.688-8.253 8.226s3.7 8.226 8.253 8.226c4.554 0 8.253-3.688 8.253-8.226s-3.699-8.226-8.253-8.226zm0 1.436a6.775 6.775 0 0 1 6.806 6.79 6.775 6.775 0 0 1-6.806 6.789 6.775 6.775 0 0 1-6.806-6.79 6.775 6.775 0 0 1 6.806-6.789z"/>
    </symbol>
   <symbol id="phone" viewBox="0 0 31 32">
<path d="M7.32 0.515c-4.034 0-7.32 3.361-7.32 7.489v16.475c0 4.127 3.286 7.489 7.32 7.489h16.105c4.034 0 7.32-3.361 7.32-7.489v-16.475c0-4.127-3.286-7.489-7.32-7.489h-16.105zM7.32 2.013h16.105c3.243 0 5.856 2.673 5.856 5.991v16.475c0 3.318-2.613 5.991-5.856 5.991h-16.105c-3.243 0-5.856-2.673-5.856-5.991v-16.475c0-3.318 2.613-5.991 5.856-5.991zM10.284 5.791c-1.497-0.066-2.634 0.516-3.348 1.215-0.357 0.35-0.615 0.724-0.792 1.074s-0.289 0.637-0.289 1.012c0-0.033-0.008 0.142-0.013 0.345s-0.004 0.478 0.014 0.809c0.037 0.663 0.146 1.559 0.438 2.621 0.582 2.125 1.894 4.912 4.738 7.822s5.569 4.251 7.646 4.847c1.039 0.298 1.914 0.41 2.562 0.448 0.324 0.019 0.59 0.020 0.789 0.015s0.371-0.013 0.339-0.013c0.366 0 0.648-0.115 0.989-0.295s0.707-0.445 1.049-0.81c0.684-0.731 1.253-1.894 1.188-3.425-0.031-0.73-0.427-1.377-1.012-1.761-0.452-0.296-1.154-0.757-2.070-1.356-1.063-0.695-2.423-0.744-3.531-0.123l0.063-0.032-0.862 0.379-0.063 0.045c-0.21 0.151-0.469 0.178-0.705 0.078-0.66-0.283-1.69-0.838-2.646-1.817s-1.5-2.032-1.776-2.707c-0.099-0.241-0.071-0.507 0.076-0.721l0.044-0.064 0.37-0.882-0.031 0.064c0.607-1.134 0.56-2.525-0.12-3.613-0.586-0.937-1.036-1.655-1.325-2.118-0.375-0.599-1.007-1.004-1.721-1.036zM10.221 7.287c0.205 0.009 0.417 0.132 0.552 0.347 0.29 0.463 0.74 1.181 1.325 2.118 0.388 0.621 0.416 1.438 0.069 2.086l-0.017 0.032-0.353 0.844 0.073-0.136c-0.433 0.63-0.52 1.449-0.229 2.16 0.33 0.807 0.961 2.032 2.092 3.189s2.328 1.802 3.117 2.14c0.695 0.297 1.496 0.209 2.112-0.234l-0.133 0.075 0.825-0.361 0.031-0.018c0.633-0.355 1.431-0.325 2.039 0.072v-0.002c0.915 0.599 1.618 1.059 2.070 1.356 0.21 0.138 0.33 0.355 0.339 0.565 0.048 1.137-0.338 1.849-0.784 2.326-0.223 0.238-0.464 0.411-0.663 0.516s-0.39 0.127-0.317 0.127c-0.134 0-0.205 0.009-0.373 0.013s-0.394 0.004-0.672-0.012c-0.557-0.032-1.325-0.129-2.25-0.395-1.851-0.531-4.331-1.728-7.006-4.464s-3.845-5.274-4.364-7.167c-0.259-0.947-0.355-1.733-0.386-2.302-0.016-0.285-0.016-0.515-0.011-0.687s0.013-0.244 0.013-0.382c0 0.074 0.021-0.121 0.124-0.325s0.272-0.451 0.505-0.679c0.466-0.456 1.162-0.851 2.273-0.801z"></path>
</symbol>
    <symbol id="location" viewBox="0 0 32 32">
      <path d="M16 0C9.37 0 4 5.37 4 12s12 20 12 20 12-13.63 12-20S22.63 0 16 0zm0 6c3.31 0 6 2.69 6 6s-2.69 6-6 6-6-2.69-6-6 2.69-6 6-6z"/>
    </symbol>
  </defs>
</svg>
