<svg xmlns="http://www.w3.org/2000/svg" aria-hidden="true" style="position:absolute;width:0;height:0;overflow:hidden; display:none">
  <defs>
    <symbol id="mail" viewBox="0 0 31 32">
      <path d="M7.32.015C3.286.015 0 3.376 0 7.504v16.475c0 4.127 3.286 7.489 7.32 7.489h16.105c4.034 0 7.32-3.361 7.32-7.489V7.504c0-4.127-3.286-7.489-7.32-7.489H7.32zm0 1.497h16.105c3.243 0 5.856 2.673 5.856 5.991v16.475c0 3.318-2.613 5.991-5.856 5.991H7.32c-3.243 0-5.856-2.673-5.856-5.991V7.503c0-3.318 2.613-5.991 5.856-5.991zm-.732 6.74c-1.204 0-2.196 1.015-2.196 2.247v10.484c0 1.232.992 2.247 2.196 2.247h17.569c1.204 0 2.196-1.015 2.196-2.247V10.499c0-1.232-.992-2.247-2.196-2.247H6.588zm.303 1.498h16.961l-6.52 6.659a2.727 2.727 0 0 1-3.933-.002L6.891 9.749zm17.998 1.057v9.867l-4.83-4.933 4.83-4.933zm-19.033.002 4.821 4.932-4.821 4.932v-9.864zm13.168 5.989 4.83 4.933H6.892l4.821-4.932.652.667a4.189 4.189 0 0 0 6.002.003l.658-.671z"/>
    </symbol>
    <symbol id="facebook" viewBox="0 0 32 32">
      <path d="M3.756.37C1.691.37 0 2.064 0 4.134v24.091c0 2.07 1.69 3.764 3.756 3.764H16.4a.774.774 0 0 0 .245 0h4.262a.774.774 0 0 0 .245 0h6.642c2.065 0 3.756-1.694 3.756-3.764V4.134c0-2.07-1.691-3.764-3.756-3.764H3.756zm0 1.506h24.038a2.245 2.245 0 0 1 2.254 2.258v24.091c0 1.256-1 2.259-2.254 2.259h-6.009v-10.54h2.87l1.052-5.27h-3.922v-1.506c0-.42.04-.453.18-.544s.575-.209 1.322-.209h2.254V8.176l-.428-.204s-1.725-.826-4.079-.826c-1.69 0-3.079.675-3.967 1.788s-1.291 2.604-1.291 4.235v1.506h-2.254v5.27h2.254v10.54H3.757a2.245 2.245 0 0 1-2.254-2.259V4.135c0-1.256 1-2.259 2.254-2.259zm17.277 6.775c1.562 0 2.544.345 3.005.528v1.731h-.751c-.864 0-1.557.072-2.141.451s-.864 1.101-.864 1.807v3.011h3.59l-.45 2.259h-3.14v12.045h-3.005V18.438h-2.254v-2.259h2.254v-3.011c0-1.38.349-2.525.962-3.294s1.479-1.223 2.793-1.223z"/>
    </symbol>
    <symbol id="instagram" viewBox="0 0 32 32">
      <path d="M9.321.052C4.182.052 0 4.245 0 9.397v12.939c0 5.152 4.182 9.345 9.321 9.345h12.907c5.139 0 9.321-4.193 9.321-9.345V9.397c0-5.152-4.182-9.345-9.321-9.345H9.321zm0 1.437h12.907c4.364 0 7.887 3.532 7.887 7.907v12.939c0 4.375-3.523 7.907-7.887 7.907H9.321c-4.364 0-7.887-3.532-7.887-7.907V9.397c0-4.375 3.523-7.907 7.887-7.907zm13.107 3.472a1.643 1.643 0 1 0 0 3.287 1.643 1.643 0 0 0 0-3.287zm-6.553 3.037c-4.553 0-8.253 3.688-8.253 8.226s3.7 8.226 8.253 8.226c4.554 0 8.253-3.688 8.253-8.226s-3.699-8.226-8.253-8.226zm0 1.436a6.775 6.775 0 0 1 6.806 6.79 6.775 6.775 0 0 1-6.806 6.789 6.775 6.775 0 0 1-6.806-6.79 6.775 6.775 0 0 1 6.806-6.789z"/>
    </symbol>
   <symbol id="phone" viewBox="0 0 31 32">
<path d="M7.32 0.515c-4.034 0-7.32 3.361-7.32 7.489v16.475c0 4.127 3.286 7.489 7.32 7.489h16.105c4.034 0 7.32-3.361 7.32-7.489v-16.475c0-4.127-3.286-7.489-7.32-7.489h-16.105zM7.32 2.013h16.105c3.243 0 5.856 2.673 5.856 5.991v16.475c0 3.318-2.613 5.991-5.856 5.991h-16.105c-3.243 0-5.856-2.673-5.856-5.991v-16.475c0-3.318 2.613-5.991 5.856-5.991zM10.284 5.791c-1.497-0.066-2.634 0.516-3.348 1.215-0.357 0.35-0.615 0.724-0.792 1.074s-0.289 0.637-0.289 1.012c0-0.033-0.008 0.142-0.013 0.345s-0.004 0.478 0.014 0.809c0.037 0.663 0.146 1.559 0.438 2.621 0.582 2.125 1.894 4.912 4.738 7.822s5.569 4.251 7.646 4.847c1.039 0.298 1.914 0.41 2.562 0.448 0.324 0.019 0.59 0.020 0.789 0.015s0.371-0.013 0.339-0.013c0.366 0 0.648-0.115 0.989-0.295s0.707-0.445 1.049-0.81c0.684-0.731 1.253-1.894 1.188-3.425-0.031-0.73-0.427-1.377-1.012-1.761-0.452-0.296-1.154-0.757-2.070-1.356-1.063-0.695-2.423-0.744-3.531-0.123l0.063-0.032-0.862 0.379-0.063 0.045c-0.21 0.151-0.469 0.178-0.705 0.078-0.66-0.283-1.69-0.838-2.646-1.817s-1.5-2.032-1.776-2.707c-0.099-0.241-0.071-0.507 0.076-0.721l0.044-0.064 0.37-0.882-0.031 0.064c0.607-1.134 0.56-2.525-0.12-3.613-0.586-0.937-1.036-1.655-1.325-2.118-0.375-0.599-1.007-1.004-1.721-1.036zM10.221 7.287c0.205 0.009 0.417 0.132 0.552 0.347 0.29 0.463 0.74 1.181 1.325 2.118 0.388 0.621 0.416 1.438 0.069 2.086l-0.017 0.032-0.353 0.844 0.073-0.136c-0.433 0.63-0.52 1.449-0.229 2.16 0.33 0.807 0.961 2.032 2.092 3.189s2.328 1.802 3.117 2.14c0.695 0.297 1.496 0.209 2.112-0.234l-0.133 0.075 0.825-0.361 0.031-0.018c0.633-0.355 1.431-0.325 2.039 0.072v-0.002c0.915 0.599 1.618 1.059 2.070 1.356 0.21 0.138 0.33 0.355 0.339 0.565 0.048 1.137-0.338 1.849-0.784 2.326-0.223 0.238-0.464 0.411-0.663 0.516s-0.39 0.127-0.317 0.127c-0.134 0-0.205 0.009-0.373 0.013s-0.394 0.004-0.672-0.012c-0.557-0.032-1.325-0.129-2.25-0.395-1.851-0.531-4.331-1.728-7.006-4.464s-3.845-5.274-4.364-7.167c-0.259-0.947-0.355-1.733-0.386-2.302-0.016-0.285-0.016-0.515-0.011-0.687s0.013-0.244 0.013-0.382c0 0.074 0.021-0.121 0.124-0.325s0.272-0.451 0.505-0.679c0.466-0.456 1.162-0.851 2.273-0.801z"></path>
</symbol>
    <symbol id="location" viewBox="0 0 32 32">
      <path d="M16 0C9.37 0 4 5.37 4 12s12 20 12 20 12-13.63 12-20S22.63 0 16 0zm0 6c3.31 0 6 2.69 6 6s-2.69 6-6 6-6-2.69-6-6 2.69-6 6-6z"/>
    </symbol>
 <symbol id="textron-logo" viewBox="0 0 32 32">
<path d="M14.204 6.555c-0.675 0.578-2.284 1.787-3.582 2.685l-2.347 1.644-0.009 1.52v1.511l0.578 0.418c0.32 0.231 0.596 0.418 0.622 0.418s0.044-0.693 0.044-1.538c0-0.836 0.036-1.573 0.071-1.618 0.036-0.053 0.444-0.373 0.907-0.711s1.502-1.102 2.311-1.689c0.809-0.587 1.52-1.102 1.582-1.138 0.080-0.062 0.107 0.96 0.107 4.996v5.076h-2.418l-0.507-0.427c-0.276-0.24-1.324-1.093-2.338-1.911l-1.84-1.485-0.329 0.284c-0.178 0.16-1.031 0.88-1.893 1.6l-1.564 1.298-0.044-0.942-0.044-0.951-1.111-0.053v3.031h-2.4v0.978h3.129l1.342-1.129c0.747-0.622 1.724-1.44 2.178-1.831 0.578-0.489 0.862-0.675 0.933-0.613 0.24 0.187 1.965 1.573 3.102 2.489l1.218 0.987 3.742 0.089v-7.013c0-5.564-0.027-7.022-0.107-7.013-0.062 0-0.667 0.471-1.333 1.040z"></path>
<path d="M16 6.378v0.889l3.849 2.4c2.107 1.316 3.893 2.418 3.956 2.453 0.080 0.053 0.107-0.107 0.107-0.64v-0.702l-3.84-2.578c-2.116-1.413-3.902-2.604-3.956-2.64-0.089-0.053-0.116 0.142-0.116 0.818z"></path>
<path d="M16 13.729v5.733h5.431l-0.027-1.316-0.027-1.307-1.191-0.053-0.053 1.476-2.711 0.053v-8.116l0.204 0.124c0.107 0.071 1.2 0.738 2.418 1.493 1.227 0.747 2.293 1.422 2.373 1.493 0.142 0.116 0.16 0.409 0.178 3.111l0.027 2.987 0.222-0.009c0.125 0 0.391-0.009 0.604-0.018l0.373-0.009v-6.542l-2.24-1.36c-1.236-0.747-2.818-1.707-3.52-2.133-0.702-0.418-1.431-0.898-1.618-1.058-0.187-0.151-0.364-0.284-0.391-0.284s-0.053 2.578-0.053 5.733z"></path>
<path d="M24.267 15.329v0.667l0.213-0.133c0.24-0.16 0.116-0.231 2.009 1.164 0.222 0.16 1.058 0.773 1.867 1.369l1.467 1.067h2.178v-0.889h-1.555l-1.733-1.262c-3.76-2.729-3.636-2.649-4.053-2.649h-0.391v0.667z"></path>
<path d="M24.507 17.124c-0.018 0.044-0.027 0.187-0.027 0.338 0.009 0.24 0.036 0.267 0.347 0.293l0.329 0.027v-0.356c0-0.356-0.009-0.364-0.302-0.364-0.169 0-0.329 0.027-0.347 0.062z"></path>
<path d="M25.333 17.418v0.356h0.711v-0.711h-0.711v0.356z"></path>
<path d="M6.4 17.595v0.444h0.889v-0.889h-0.889v0.444z"></path>
<path d="M7.467 17.595v0.444h0.889v-0.889h-0.889v0.444z"></path>
<path d="M24.631 17.951c-0.044 0.027-0.107 0.178-0.142 0.329l-0.062 0.293h0.729v-0.356c0-0.329-0.018-0.356-0.231-0.338-0.125 0.009-0.258 0.044-0.293 0.071z"></path>
<path d="M25.333 18.218v0.356h0.356c0.347 0 0.356-0.009 0.356-0.311 0-0.187-0.044-0.311-0.107-0.32-0.062 0-0.222-0.027-0.356-0.044-0.24-0.036-0.249-0.027-0.249 0.32z"></path>
<path d="M6.4 18.662v0.444h0.889v-0.889h-0.889v0.444z"></path>
<path d="M7.467 18.662v0.444h0.889v-0.889h-0.889v0.444z"></path>
<path d="M0.062 19.969c-0.036 0.027-0.062 0.329-0.062 0.667v0.604h1.778v5.244h1.156v-5.244h27.911v1.307c0 1.529 0.116 1.52-1.164 0.027l-0.836-0.987-1.156 0.053-0.027 2.418-0.018 2.427h1.236l0.053-2.489 0.933 1.245 0.933 1.236 0.604 0.009h0.596v-6.578h-15.938c-8.773 0-15.973 0.027-16 0.062z"></path>
<path d="M4.089 24.084v2.4h2.933v-0.978h-1.778v-0.978h1.778v-0.978h-1.778v-0.889h1.778v-0.978h-2.933v2.4z"></path>
<path d="M24.009 21.809c-0.444 0.16-0.915 0.596-1.164 1.084-0.187 0.364-0.222 0.56-0.222 1.191 0 0.649 0.036 0.818 0.24 1.209 0.258 0.498 0.738 0.924 1.218 1.084 1.493 0.516 2.951-1.102 2.587-2.853-0.276-1.324-1.52-2.133-2.658-1.716zM25.075 22.973c0.809 0.427 0.8 1.778-0.018 2.205-0.382 0.195-0.747 0.142-1.075-0.178-0.631-0.604-0.444-1.751 0.329-2.071 0.267-0.116 0.471-0.107 0.765 0.044z"></path>
<path fill='red' d="M8.356 21.835c0 0.044 0.24 0.569 0.533 1.173s0.533 1.164 0.533 1.245c0 0.080-0.258 0.596-0.569 1.138l-0.578 1.005h1.191l0.267-0.444c0.142-0.249 0.284-0.444 0.32-0.444s0.151 0.222 0.267 0.489l0.213 0.489h1.191l-0.525-1.076c-0.444-0.898-0.516-1.102-0.435-1.262 0.053-0.098 0.373-0.649 0.711-1.227s0.613-1.076 0.613-1.102c0-0.027-0.258-0.044-0.578-0.044h-0.578l-0.373 0.667c-0.213 0.364-0.4 0.667-0.427 0.667s-0.195-0.302-0.382-0.667l-0.329-0.667h-0.533c-0.293 0-0.533 0.027-0.533 0.062z"></path>
<path d="M12.889 22.218v0.444h1.333v3.822h1.156v-3.822h1.333v-0.889h-3.822v0.444z"></path>
<path d="M17.955 24.173v2.311h1.245v-0.693l0.009-0.684 0.64 0.693 0.64 0.684h0.604c0.329 0 0.596-0.018 0.596-0.044s-0.284-0.4-0.631-0.827l-0.622-0.773 0.329-0.098c0.871-0.249 1.227-1.529 0.604-2.196-0.453-0.489-1.164-0.684-2.524-0.684h-0.889v2.311zM20.267 22.795c0.836 0.435 0.418 1.555-0.578 1.555-0.364 0-0.489-0.222-0.489-0.889 0-0.489 0.036-0.631 0.16-0.702 0.222-0.133 0.613-0.116 0.907 0.036z"></path>
</symbol>
<symbol id="clock" viewBox="0 0 23 32">
<path d="M9.273 7.104c-1.44 0.366-3.497 1.6-4.503 2.674-0.503 0.549-1.257 1.691-1.646 2.537-0.663 1.394-0.731 1.737-0.731 3.726 0 2.057 0.046 2.263 0.846 3.909 1.029 2.080 2.354 3.36 4.48 4.366 1.394 0.663 1.737 0.731 3.703 0.731s2.309-0.069 3.703-0.731c2.126-1.006 3.451-2.286 4.48-4.366 0.8-1.646 0.846-1.851 0.846-3.931s-0.046-2.286-0.846-3.931c-1.554-3.109-4.297-4.96-7.68-5.12-0.96-0.046-2.149 0.023-2.651 0.137zM12.062 12.636l0.046 4.069h-3.177c-2.537 0-3.223-0.069-3.451-0.343s-0.229-0.411 0-0.686c0.206-0.251 0.914-0.343 2.697-0.389l2.446-0.069 0.069-3.086c0.023-1.691 0.091-3.223 0.16-3.383s0.343-0.274 0.617-0.229c0.526 0.069 0.526 0.114 0.594 4.114z"></path>
</symbol>
<symbol id="document" viewBox="0 0 23 32">
<path d="M4.336 6.446c-0.348 0.394-0.394 1.391-0.394 9.6 0 8.58 0.023 9.183 0.417 9.53 0.371 0.348 1.229 0.394 7.281 0.394 6.33 0 6.864-0.023 7.212-0.417 0.348-0.371 0.394-1.229 0.394-7.328v-6.887l-2.667-2.667-2.667-2.643h-4.591c-4.174 0-4.638 0.046-4.986 0.417zM15.745 12.012c-1.043 0.046-2.041 0.023-2.226-0.046-0.209-0.093-0.301-0.696-0.301-2.272v-2.157l2.203 2.203 2.226 2.203-1.901 0.070zM16.023 16.371c0.209 0.255 0.232 0.464 0.046 0.742-0.209 0.348-0.788 0.394-4.22 0.464-3.942 0.046-4.893-0.093-4.893-0.719 0-0.765 0.557-0.858 4.661-0.858 3.455 0 4.151 0.046 4.406 0.371zM14.377 19.362c0.139 0.186 0.232 0.51 0.185 0.742-0.070 0.371-0.394 0.417-3.641 0.417-3.084 0-3.594-0.046-3.803-0.394-0.186-0.278-0.162-0.487 0.046-0.742 0.441-0.533 6.771-0.557 7.212-0.023z"></path>
</symbol>
<symbol id="constructing" viewBox="0 0 32 32">
<path d="M8.639 6.257c-0.096 0.072-0.167 0.406-0.167 0.716 0 0.478-0.119 0.549-0.931 0.549-1.122 0-1.504 0.43-1.409 1.481 0.072 0.74 0.143 0.788 1.146 0.907 0.979 0.119 1.075 0.191 1.194 0.836 0.096 0.573 0.263 0.74 0.788 0.788l0.645 0.072v5.134c0 4.752-0.024 5.11-0.43 5.11-0.597 0-1.003 0.454-1.003 1.122 0 0.406-0.143 0.549-0.549 0.549-0.716 0-1.122 0.43-1.122 1.218 0 1.099 0.358 1.194 4.561 1.122l3.916-0.072 0.215-0.669c0.31-0.86-0.048-1.457-0.884-1.552-0.478-0.048-0.645-0.239-0.693-0.716-0.048-0.502-0.263-0.693-0.836-0.884l-0.788-0.215v-10.173h0.549c0.693 0 1.122-0.43 1.122-1.122v-0.573l6.328 0.143 0.072 0.764 0.072 0.788h-1.433c-1.17 0-1.481 0.096-1.696 0.454-0.167 0.358-0.143 0.549 0.143 0.836 0.549 0.549 6.806 0.549 7.355 0 0.812-0.788 0.191-1.29-1.6-1.29h-1.385l0.072-0.788 0.072-0.764 3.821-0.239 0.072-0.836c0.143-1.385-0.096-1.433-6.304-1.433h-5.54l-0.716-0.716c-0.693-0.669-0.836-0.716-2.627-0.716-1.027 0-1.958 0.072-2.030 0.167zM12.006 7.809c0.167 0.167 0.287 0.693 0.287 1.194v0.907h-2.388v-1.027c0-0.573 0.072-1.122 0.167-1.194 0.263-0.287 1.624-0.191 1.934 0.119z"></path>
<path d="M19.027 14.973c-0.167 0.167-0.287 0.525-0.287 0.836 0 0.43-0.143 0.549-0.597 0.549-0.334 0-0.693 0.191-0.836 0.454-0.358 0.693-0.31 8.454 0.048 8.812 0.191 0.191 1.385 0.287 3.821 0.287 3.224 0 3.534-0.048 3.773-0.454 0.358-0.669 0.31-6.782-0.048-7.14-0.167-0.167-0.525-0.287-0.836-0.287-0.502 0-0.549-0.096-0.549-1.433 0-1.146-0.096-1.457-0.454-1.672-0.764-0.382-1.218 0.287-1.218 1.815 0 0.884-0.096 1.29-0.31 1.29-0.406 0-1.122-1.242-1.122-1.982 0-0.573-0.549-1.361-0.931-1.361-0.096 0-0.287 0.119-0.454 0.287zM20.364 20.346c0.072 0.764 0.048 0.788-0.764 0.788-0.836 0-0.86-0.024-0.86-0.86 0-0.812 0.024-0.836 0.788-0.764 0.669 0.072 0.764 0.167 0.836 0.836zM23.516 20.299c0 0.788-0.048 0.836-0.836 0.836-0.764 0-0.836-0.072-0.836-0.669 0-0.382 0.072-0.764 0.167-0.836 0.072-0.096 0.454-0.167 0.836-0.167 0.597 0 0.669 0.072 0.669 0.836zM20.412 23.522c0 0.669-0.072 0.716-0.836 0.716s-0.836-0.048-0.836-0.716c0-0.669 0.072-0.716 0.836-0.716s0.836 0.048 0.836 0.716zM23.516 23.522c0 0.669-0.072 0.716-0.836 0.716s-0.836-0.048-0.836-0.716c0-0.669 0.072-0.716 0.836-0.716s0.836 0.048 0.836 0.716z"></path>
</symbol>
<symbol id="area-icon" viewBox="0 0 32 32">
<path d="M5.017 5.001c-0.704 0.704-0.832 1.088-0.768 2.144l0.096 1.312 4.896 0.096c5.568 0.096 5.824 0 5.824-2.176 0-2.080-0.32-2.24-5.056-2.24-4.064 0-4.16 0-4.992 0.864z"></path>
<path d="M17.401 4.617c-0.576 0.608-0.512 2.976 0.064 3.552 0.352 0.384 1.408 0.448 5.344 0.384l4.896-0.096 0.096-1.312c0.064-1.056-0.064-1.44-0.768-2.144-0.832-0.864-0.928-0.864-5.056-0.864-3.2 0.032-4.288 0.128-4.576 0.48z"></path>
<path d="M4.313 10.985c-0.096 0.224-0.128 1.216-0.064 2.144l0.096 1.728 1.696 0.096c1.152 0.064 1.824-0.032 2.144-0.384 0.608-0.608 0.608-2.976 0.032-3.584-0.608-0.608-3.68-0.608-3.904 0z"></path>
<path d="M11.001 11.017c-0.576 0.608-0.512 2.976 0.032 3.552 0.672 0.64 9.312 0.64 9.984 0 0.576-0.608 0.576-2.976 0-3.584-0.672-0.64-9.44-0.64-10.016 0.032z"></path>
<path d="M23.801 11.017c-0.576 0.64-0.512 2.976 0.064 3.552 0.32 0.352 0.992 0.448 2.144 0.384l1.696-0.096v-4.16l-1.76-0.064c-1.216-0.064-1.888 0.064-2.144 0.384z"></path>
<path d="M4.313 17.385c-0.096 0.224-0.128 1.216-0.064 2.144l0.096 1.728 4.896 0.096c5.568 0.096 5.824 0 5.824-2.176 0-2.144-0.256-2.24-5.76-2.24-3.776 0-4.864 0.096-4.992 0.448z"></path>
<path d="M17.401 17.417c-0.576 0.608-0.512 2.976 0.064 3.552 0.352 0.384 1.408 0.448 5.344 0.384l4.896-0.096v-4.16l-4.96-0.064c-3.968-0.064-5.024 0-5.344 0.384z"></path>
<path d="M4.409 23.561c-0.128 0.096-0.224 0.736-0.224 1.376 0 2.176 2.656 3.776 4.032 2.432 0.576-0.608 0.576-2.976 0-3.584-0.48-0.448-3.424-0.64-3.808-0.224z"></path>
<path d="M11.001 23.817c-0.576 0.608-0.512 2.976 0.032 3.552 0.672 0.64 9.312 0.64 9.984 0 0.576-0.608 0.576-2.976 0-3.584-0.672-0.64-9.44-0.64-10.016 0.032z"></path>
<path d="M23.801 23.817c-0.576 0.608-0.512 2.976 0.032 3.552 0.768 0.736 2.24 0.544 3.2-0.416 0.704-0.704 0.832-1.088 0.768-2.144l-0.096-1.312-1.76-0.064c-1.216-0.064-1.888 0.064-2.144 0.384z"></path>
</symbol>
<symbol id="calendar" viewBox="0 0 32 32">
<path d="M4.832 4.128c-0.416 0.576-0.672 1.44-0.672 2.272 0 0.928-0.256 1.632-0.8 2.368-0.864 1.12-0.96 1.888-0.512 3.68 0.992 3.84 1.248 5.696 0.992 6.912-0.16 0.704-0.384 1.696-0.48 2.24-0.096 0.512-0.352 1.696-0.544 2.624-0.416 2.016-0.032 3.232 1.312 4.032 0.832 0.48 2.176 0.544 11.872 0.544 12.064 0 12.224-0.032 13.088-1.984 0.352-0.768 0.352-1.312 0.096-2.624-0.192-0.896-0.448-2.080-0.544-2.592-0.096-0.544-0.32-1.536-0.48-2.24-0.256-1.216 0-3.072 0.992-6.912 0.448-1.792 0.352-2.56-0.512-3.68-0.544-0.736-0.8-1.44-0.8-2.368 0-0.832-0.256-1.696-0.672-2.272l-0.64-0.928h-21.056l-0.64 0.928zM25.6 6.4v0.96h-19.2v-1.92h19.2v0.96zM15.584 14.88c0.224 0.256 0.416 1.088 0.416 1.888v1.472h2.24c2.208 0 2.24 0 2.24-0.832 0-0.8-0.064-0.832-1.12-0.64-1.024 0.192-1.12 0.16-1.12-0.544 0-0.64 0.288-0.832 2.016-1.408l1.984-0.672 0.192 4.096h1.536c1.184 0 1.632 0.128 1.792 0.544 0.416 1.056 1.216 5.024 1.248 6.336l0.032 1.28h-22.080l0.032-1.28c0.032-1.312 0.832-5.28 1.248-6.336 0.192-0.448 0.672-0.544 2.912-0.544 2.464 0 2.688 0.064 2.688 0.64 0 0.416 0.288 0.704 0.896 0.832 1.536 0.32 1.664 0.416 1.664 1.184 0 1.504-1.632 2.048-2.656 0.864-0.672-0.8-2.144-0.864-2.144-0.096 0 0.288 0.448 0.928 1.024 1.44 1.824 1.632 5.12 0.896 5.536-1.216 0.192-1.12-0.288-2.688-0.832-2.688-0.192 0-0.288-0.224-0.16-0.48 0.096-0.32-0.032-0.48-0.448-0.48-0.32 0-0.704-0.16-0.8-0.32-0.096-0.192-0.032-0.32 0.128-0.32 0.704 0 0.352-1.504-0.416-1.856-0.64-0.288-0.928-0.224-1.568 0.288-0.8 0.608-1.856 0.8-2.24 0.416-0.448-0.48 0.864-1.952 1.984-2.272 1.28-0.32 3.072 0.032 3.776 0.704z"></path>
<path d="M20.48 20.608c0 2.912 0.16 3.392 1.152 3.392 0.768 0 0.768-0.064 0.768-2.88v-2.88h-1.92v2.368z"></path>
</symbol>
<symbol id="google-logo" viewBox="0 0 95 32">
<path fill="#ea4335" style="fill: var(--color1, #ea4335)" d="M40.261 16.41c0 4.442-3.475 7.715-7.739 7.715s-7.739-3.273-7.739-7.715c0-4.473 3.475-7.715 7.739-7.715s7.739 3.242 7.739 7.715zM36.873 16.41c0-2.776-2.014-4.675-4.351-4.675s-4.351 1.899-4.351 4.675c0 2.748 2.014 4.675 4.351 4.675s4.351-1.93 4.351-4.675z"></path>
<path fill="#fbbc05" style="fill: var(--color2, #fbbc05)" d="M56.957 16.41c0 4.442-3.475 7.715-7.739 7.715s-7.739-3.273-7.739-7.715c0-4.47 3.475-7.715 7.739-7.715s7.739 3.242 7.739 7.715zM53.569 16.41c0-2.776-2.014-4.675-4.351-4.675s-4.351 1.899-4.351 4.675c0 2.748 2.014 4.675 4.351 4.675s4.351-1.93 4.351-4.675z"></path>
<path fill="#4285f4" style="fill: var(--color3, #4285f4)" d="M72.957 9.162v13.85c0 5.697-3.36 8.024-7.332 8.024-3.739 0-5.99-2.501-6.838-4.546l2.95-1.228c0.525 1.256 1.812 2.737 3.885 2.737 2.543 0 4.118-1.569 4.118-4.522v-1.11h-0.118c-0.758 0.936-2.219 1.753-4.063 1.753-3.857 0-7.391-3.36-7.391-7.683 0-4.355 3.534-7.743 7.391-7.743 1.84 0 3.301 0.817 4.063 1.725h0.118v-1.256h3.217zM69.979 16.438c0-2.717-1.812-4.703-4.118-4.703-2.337 0-4.296 1.986-4.296 4.703 0 2.689 1.958 4.647 4.296 4.647 2.306 0 4.118-1.958 4.118-4.647z"></path>
<path fill="#34a853" style="fill: var(--color4, #34a853)" d="M78.261 1.043v22.609h-3.304v-22.609h3.304z"></path>
<path fill="#ea4335" style="fill: var(--color1, #ea4335)" d="M91.137 18.95l2.63 1.753c-0.849 1.256-2.894 3.419-6.428 3.419-4.383 0-7.656-3.388-7.656-7.715 0-4.588 3.301-7.715 7.277-7.715 4.003 0 5.962 3.186 6.602 4.908l0.351 0.877-10.313 4.271c0.79 1.548 2.017 2.337 3.739 2.337 1.725 0 2.922-0.849 3.798-2.136zM83.043 16.174l6.894-2.863c-0.379-0.963-1.52-1.635-2.863-1.635-1.722 0-4.118 1.52-4.031 4.497z"></path>
<path fill="#4285f4" style="fill: var(--color3, #4285f4)" d="M12.275 14.403v-3.273h11.030c0.108 0.57 0.163 1.245 0.163 1.976 0 2.456-0.671 5.492-2.835 7.656-2.104 2.191-4.793 3.36-8.355 3.36-6.602 0-12.153-5.377-12.153-11.979s5.551-11.979 12.153-11.979c3.652 0 6.254 1.433 8.209 3.301l-2.31 2.31c-1.402-1.315-3.301-2.337-5.903-2.337-4.821 0-8.591 3.885-8.591 8.706s3.77 8.706 8.591 8.706c3.127 0 4.908-1.256 6.049-2.397 0.925-0.925 1.534-2.247 1.774-4.052l-7.823 0.003z"></path>
</symbol>
<symbol id="arrow-up" viewBox="0 0 32 32">
<path d="M27.414 12.586l-10-10c-0.781-0.781-2.047-0.781-2.828 0l-10 10c-0.781 0.781-0.781 2.047 0 2.828s2.047 0.781 2.828 0l6.586-6.586v19.172c0 1.105 0.895 2 2 2s2-0.895 2-2v-19.172l6.586 6.586c0.39 0.39 0.902 0.586 1.414 0.586s1.024-0.195 1.414-0.586c0.781-0.781 0.781-2.047 0-2.828z"></path>
</symbol>
<symbol id="cz-lang" viewBox="0 0 32 32">
<path fill="#fe4a55" style="fill: var(--color1, #fe4a55)" d="M3.076 5.479c0.116-0 0.232-0.001 0.348-0.001 0.318-0.001 0.636-0.001 0.953-0 0.343 0 0.686-0 1.029-0.001 0.672-0.001 1.344-0.001 2.016-0.001 0.546 0 1.092 0 1.638-0 0.078-0 0.155-0 0.236-0 0.158-0 0.316-0 0.474-0 1.060-0.001 2.121-0.001 3.181-0 0.062 0 0.062 0 0.126 0 0.337 0 0.673 0 1.010 0 1.313 0.001 2.625 0 3.938-0.001 1.476-0.002 2.951-0.002 4.427-0.002 0.781 0 1.562 0 2.343-0.001 0.665-0.001 1.33-0.001 1.994 0 0.339 0.001 0.678 0.001 1.017-0 0.311-0.001 0.621-0.001 0.932 0.001 0.112 0 0.224 0 0.336-0.001 0.839-0.005 1.56 0.064 2.223 0.636 0.573 0.594 0.723 1.177 0.721 1.974 0 0.070 0.001 0.141 0.001 0.213 0.001 0.235 0.001 0.471 0.001 0.706 0 0.169 0.001 0.338 0.001 0.507 0.001 0.411 0.001 0.822 0.001 1.233 0 0.334 0 0.669 0.001 1.003 0.001 0.948 0.002 1.897 0.002 2.845 0 0.077 0 0.077 0 0.155 0 0.051 0 0.102 0 0.155-0 0.829 0.001 1.658 0.003 2.487 0.002 0.852 0.003 1.704 0.003 2.555-0 0.478 0 0.956 0.002 1.434 0.001 0.407 0.001 0.814 0.001 1.221-0 0.207-0 0.415 0.001 0.622 0.001 0.225 0 0.451-0.001 0.676 0.001 0.065 0.001 0.13 0.002 0.196-0.006 0.664-0.209 1.207-0.641 1.712-0.703 0.69-1.534 0.729-2.461 0.725-0.116 0-0.232 0-0.348 0.001-0.318 0.001-0.636 0-0.955-0-0.343-0-0.687 0-1.030 0.001-0.673 0.001-1.345 0.001-2.018 0-0.547-0-1.093-0-1.64-0-0.078 0-0.156 0-0.236 0-0.158 0-0.316 0-0.474 0-1.44 0.001-2.88-0-4.32-0.001-1.314-0.001-2.628-0.001-3.941 0-1.477 0.001-2.953 0.001-4.43 0.001-0.158-0-0.315-0-0.472-0-0.078-0-0.155-0-0.235-0-0.546-0-1.092 0-1.638 0.001-0.665 0.001-1.331 0-1.996-0.001-0.339-0-0.679-0.001-1.018-0-0.311 0.001-0.622 0-0.933-0.001-0.112-0-0.225-0-0.337 0-0.91 0.003-1.586-0.080-2.286-0.712-0.51-0.578-0.654-1.149-0.649-1.905-0-0.070-0.001-0.141-0.001-0.213-0.001-0.235-0-0.47 0-0.705-0-0.169-0.001-0.338-0.001-0.507-0.001-0.411-0.001-0.821-0.001-1.232 0-0.334 0-0.668-0-1.002-0-0.048-0-0.095-0-0.144-0-0.097-0-0.193-0-0.29-0.001-0.906-0.001-1.812 0-2.718 0.001-0.828-0-1.656-0.002-2.484-0.002-0.851-0.002-1.703-0.002-2.554 0-0.477 0-0.955-0.001-1.433-0.001-0.406-0.001-0.813 0-1.22 0.001-0.207 0.001-0.414-0-0.622-0.001-0.225-0-0.45 0.001-0.675-0.001-0.065-0.001-0.129-0.002-0.196 0.007-0.741 0.263-1.324 0.783-1.85 0.689-0.589 1.462-0.59 2.325-0.587z"></path>
<path fill="#f4f4f4" style="fill: var(--color2, #f4f4f4)" d="M2.429 5.487c0.072-0 0.072-0 0.145-0.001 0.16-0.001 0.32-0 0.48 0 0.116-0 0.232-0.001 0.348-0.001 0.318-0.001 0.636-0.001 0.955-0.001 0.343 0 0.687-0.001 1.030-0.001 0.673-0.001 1.345-0.001 2.018-0.001 0.547-0 1.093-0 1.64-0.001 1.298-0.001 2.596-0.002 3.893-0.002 0.041 0 0.083 0 0.126 0 0.21 0 0.421 0 0.631 0 0.042 0 0.084 0 0.127 0 0.084 0 0.169 0 0.253 0 1.314 0 2.628-0.001 3.941-0.003 1.477-0.002 2.953-0.003 4.43-0.003 0.782 0 1.563-0 2.345-0.002 0.666-0.001 1.331-0.001 1.997-0.001 0.339 0 0.679 0 1.018-0.001 0.311-0.001 0.622-0.001 0.933 0 0.112 0 0.224-0 0.337-0.001 0.84-0.005 1.561 0.063 2.224 0.635 0.621 0.643 0.723 1.254 0.718 2.113-0 0.085 0 0.17 0 0.255 0 0.23-0.001 0.46-0.002 0.689-0.001 0.241-0.001 0.481-0.001 0.722-0 0.455-0.001 0.91-0.003 1.365-0.001 0.518-0.002 1.037-0.003 1.555-0.001 1.066-0.004 2.131-0.006 3.197-2.011 0.032-4.022 0.056-6.033 0.070-0.239 0.002-0.477 0.003-0.716 0.005-0.071 0.001-0.071 0.001-0.144 0.001-0.764 0.006-1.529 0.017-2.293 0.029-0.787 0.013-1.574 0.021-2.361 0.023-0.441 0.002-0.882 0.006-1.323 0.016-1.913 0.043-3.451 0.063-4.939-1.253-0.369-0.325-0.781-0.571-1.202-0.822-0.181-0.111-0.356-0.229-0.532-0.347-0.062-0.041-0.062-0.041-0.125-0.084-0.036-0.024-0.071-0.048-0.108-0.073-0.378-0.253-0.758-0.501-1.138-0.75-0.039-0.025-0.078-0.051-0.118-0.077-0.201-0.131-0.402-0.263-0.603-0.394-0.345-0.226-0.69-0.452-1.034-0.678-0.188-0.124-0.377-0.247-0.566-0.371-0.076-0.049-0.151-0.099-0.227-0.148-0.037-0.024-0.075-0.049-0.113-0.074-3.965-2.598-3.965-2.598-4.078-2.672-0.076-0.050-0.151-0.099-0.227-0.149-0.188-0.123-0.375-0.246-0.563-0.369-0.355-0.233-0.71-0.465-1.065-0.698-0.168-0.11-0.336-0.22-0.505-0.331-0.080-0.053-0.161-0.105-0.241-0.158-0.111-0.073-0.223-0.146-0.334-0.219-0.063-0.042-0.127-0.083-0.192-0.126-0.116-0.076-0.231-0.153-0.346-0.229 0.085-0.205 0.155-0.289 0.355-0.383 0.040-0.019 0.080-0.039 0.122-0.059 0.36-0.142 0.691-0.201 1.076-0.199z"></path>
<path fill="#41479b" style="fill: var(--color3, #41479b)" d="M0.751 6.066c0.249 0.090 0.455 0.209 0.676 0.355 0.035 0.023 0.070 0.046 0.106 0.069 0.115 0.076 0.229 0.152 0.344 0.228 0.081 0.054 0.162 0.107 0.244 0.161 0.169 0.111 0.337 0.223 0.506 0.334 0.348 0.23 0.696 0.458 1.045 0.686 0.188 0.123 0.377 0.247 0.565 0.37 0.076 0.049 0.151 0.099 0.227 0.148 7.703 5.047 7.703 5.047 7.816 5.121 0.076 0.050 0.151 0.099 0.227 0.149 0.188 0.123 0.375 0.246 0.563 0.369 0.353 0.231 0.706 0.463 1.060 0.694 0.166 0.109 0.333 0.218 0.499 0.327 0.079 0.052 0.158 0.104 0.237 0.155 0.11 0.072 0.22 0.144 0.33 0.216 0.062 0.041 0.125 0.082 0.189 0.124 0.186 0.122 0.37 0.245 0.555 0.369-0.087 0.261-0.27 0.331-0.496 0.465-0.093 0.056-0.186 0.113-0.278 0.17-0.048 0.029-0.096 0.059-0.146 0.089-0.221 0.138-0.438 0.283-0.654 0.428-0.49 0.329-0.983 0.653-1.477 0.977-0.039 0.025-0.077 0.050-0.117 0.076-0.198 0.13-0.397 0.259-0.595 0.389-0.344 0.225-0.688 0.45-1.031 0.675-0.189 0.124-0.377 0.247-0.566 0.371-0.076 0.049-0.151 0.099-0.227 0.148-5.891 3.859-5.891 3.859-6.004 3.934-0.076 0.050-0.151 0.099-0.227 0.149-0.188 0.123-0.375 0.246-0.563 0.369-0.354 0.232-0.708 0.464-1.061 0.698-0.167 0.11-0.334 0.22-0.501 0.331-0.080 0.053-0.159 0.105-0.239 0.158-0.11 0.073-0.221 0.146-0.331 0.219-0.063 0.042-0.126 0.083-0.19 0.126-0.159 0.096-0.311 0.167-0.486 0.229-0.079-0.089-0.157-0.179-0.234-0.27-0.043-0.050-0.087-0.1-0.132-0.152-0.335-0.511-0.421-1.023-0.416-1.624-0-0.071-0.001-0.141-0.001-0.214-0.001-0.235-0-0.469 0.001-0.704-0-0.169-0.001-0.338-0.001-0.507-0.001-0.41-0.001-0.82-0-1.231 0.001-0.334 0.001-0.667 0-1.001-0-0.048-0-0.095-0-0.144-0-0.097-0-0.193-0-0.29-0.001-0.905 0-1.811 0.001-2.716 0.001-0.776 0.001-1.551-0-2.327-0.001-0.902-0.002-1.804-0.001-2.707 0-0.096 0-0.193 0-0.289 0-0.071 0-0.071 0-0.144 0-0.333-0-0.666-0.001-0.999-0.001-0.406-0.001-0.812 0.001-1.218 0.001-0.207 0.001-0.414 0-0.621-0.001-0.225 0-0.45 0.001-0.675-0.001-0.065-0.001-0.129-0.002-0.196 0.006-0.592 0.154-1.126 0.549-1.58 0.044-0.052 0.088-0.104 0.134-0.157 0.033-0.037 0.066-0.074 0.101-0.113z"></path>
</symbol>
<symbol id="us-lang" viewBox="0 0 32 32">
<path fill="#fe4b55" style="fill: var(--color4, #fe4b55)" d="M3.075 5.476c0.116-0 0.232-0.001 0.348-0.001 0.318-0.001 0.636-0.001 0.953-0 0.343 0 0.686-0 1.029-0.001 0.672-0.001 1.344-0.001 2.016-0.001 0.546 0 1.092 0 1.638-0 0.078-0 0.155-0 0.236-0 0.158-0 0.316-0 0.474-0 1.060-0.001 2.121-0.001 3.181-0 0.062 0 0.062 0 0.126 0 0.337 0 0.673 0 1.010 0 1.313 0.001 2.625 0 3.938-0.001 1.476-0.002 2.951-0.002 4.427-0.002 0.781 0 1.562 0 2.343-0.001 0.665-0.001 1.33-0.001 1.994 0 0.339 0.001 0.678 0.001 1.017-0 0.311-0.001 0.621-0.001 0.932 0.001 0.112 0 0.224 0 0.336-0.001 0.839-0.005 1.56 0.064 2.223 0.636 0.573 0.594 0.723 1.177 0.721 1.974 0 0.070 0.001 0.141 0.001 0.213 0.001 0.235 0.001 0.471 0.001 0.706 0 0.169 0.001 0.338 0.001 0.507 0.001 0.411 0.001 0.822 0.001 1.233 0 0.334 0 0.669 0.001 1.003 0.001 0.948 0.002 1.897 0.002 2.845 0 0.077 0 0.077 0 0.155 0 0.051 0 0.102 0 0.155-0 0.829 0.001 1.658 0.003 2.487 0.002 0.852 0.003 1.704 0.003 2.555-0 0.478 0 0.956 0.002 1.434 0.001 0.407 0.001 0.814 0.001 1.221-0 0.207-0 0.415 0.001 0.622 0.001 0.225 0 0.451-0.001 0.676 0.001 0.065 0.001 0.13 0.002 0.196-0.007 0.741-0.263 1.324-0.783 1.851-0.689 0.589-1.462 0.59-2.325 0.587-0.116 0-0.232 0.001-0.348 0.001-0.318 0.001-0.636 0.001-0.953 0-0.343-0-0.686 0-1.029 0.001-0.672 0.001-1.344 0.001-2.016 0.001-0.546-0-1.092-0-1.638 0-0.078 0-0.155 0-0.236 0-0.158 0-0.316 0-0.474 0-1.060 0.001-2.121 0.001-3.181 0-0.062-0-0.062-0-0.126-0-0.337-0-0.673-0-1.010-0-1.313-0.001-2.625-0-3.938 0.001-1.476 0.002-2.951 0.002-4.427 0.002-0.781-0-1.562-0-2.343 0.001-0.665 0.001-1.33 0.001-1.994-0-0.339-0.001-0.678-0.001-1.017 0-0.311 0.001-0.621 0.001-0.932-0.001-0.112-0-0.224-0-0.336 0.001-0.839 0.005-1.56-0.064-2.223-0.636-0.573-0.594-0.723-1.177-0.721-1.974-0-0.070-0.001-0.141-0.001-0.213-0.001-0.235-0.001-0.471-0.001-0.706-0-0.169-0.001-0.338-0.001-0.507-0.001-0.411-0.001-0.822-0.001-1.233-0-0.334-0-0.669-0.001-1.003-0.001-0.948-0.002-1.897-0.002-2.846 0-0.051 0-0.102 0-0.155 0-0.051 0-0.102 0-0.155 0-0.829-0.001-1.658-0.003-2.487-0.002-0.852-0.003-1.704-0.003-2.556 0-0.478-0-0.956-0.002-1.434-0.001-0.407-0.001-0.814-0.001-1.221 0-0.207 0-0.415-0.001-0.622-0.001-0.225-0-0.451 0.001-0.676-0.001-0.065-0.001-0.13-0.002-0.196 0.007-0.741 0.263-1.324 0.783-1.851 0.689-0.589 1.462-0.59 2.325-0.587z"></path>
<path fill="#f4f1f1" style="fill: var(--color5, #f4f1f1)" d="M0 17.625c4.744 0 9.488 0 14.375 0 0 2.929 0 5.858 0 8.875-3.089 0.010-3.089 0.010-4.385 0.012-0.894 0.001-1.788 0.003-2.683 0.007-0.651 0.003-1.303 0.004-1.954 0.005-0.345 0-0.689 0.001-1.034 0.003-0.325 0.002-0.65 0.002-0.974 0.002-0.119 0-0.238 0.001-0.356 0.002-0.862 0.007-1.603-0.044-2.285-0.633-1.919-1.988-0.704-6.918-0.704-8.271z"></path>
<path fill="#f4f1f1" style="fill: var(--color5, #f4f1f1)" d="M17.625 5.5c3.089-0.010 3.089-0.010 4.385-0.012 0.894-0.001 1.788-0.003 2.683-0.007 0.651-0.003 1.303-0.004 1.954-0.005 0.345-0 0.689-0.001 1.034-0.003 0.325-0.002 0.65-0.002 0.974-0.002 0.119-0 0.238-0.001 0.356-0.002 0.862-0.007 1.603 0.044 2.285 0.633 1.919 1.988 0.704 6.918 0.704 8.271-4.744 0-9.488 0-14.375 0 0-2.929 0-5.857 0-8.875z"></path>
<path fill="#f4f1f1" style="fill: var(--color5, #f4f1f1)" d="M3.15 5.479c0.123 0 0.245 0 0.368-0 0.331-0 0.663 0.001 0.994 0.002 0.347 0.001 0.694 0.001 1.041 0.002 0.656 0.001 1.313 0.002 1.969 0.004 0.887 0.003 1.775 0.003 2.662 0.005 1.397 0.002 2.794 0.005 4.191 0.009 0 2.929 0 5.857 0 8.875-4.744 0-9.488 0-14.375 0 0-7.553 0-7.553 0.75-8.313 0.715-0.61 1.51-0.589 2.4-0.584z"></path>
<path fill="#f4f1f1" style="fill: var(--color5, #f4f1f1)" d="M17.625 17.625c4.744 0 9.488 0 14.375 0 0 7.553 0 7.553-0.75 8.313-0.715 0.61-1.51 0.589-2.4 0.584-0.123-0-0.245-0-0.368 0-0.331 0-0.663-0.001-0.994-0.002-0.347-0.001-0.694-0.001-1.041-0.002-0.656-0.001-1.313-0.002-1.969-0.004-0.887-0.003-1.775-0.003-2.662-0.005-1.397-0.002-2.794-0.006-4.191-0.009 0-2.929 0-5.858 0-8.875z"></path>
<path fill="#41479b" style="fill: var(--color3, #41479b)" d="M18.75 19.813c0.224 0.090 0.375 0.156 0.566 0.287 0.049 0.033 0.098 0.066 0.148 0.1 0.053 0.036 0.106 0.072 0.161 0.109 0.118 0.080 0.237 0.16 0.355 0.239 0.095 0.064 0.095 0.064 0.193 0.13 0.357 0.239 0.717 0.474 1.077 0.709 0.078 0.051 0.155 0.101 0.232 0.152 0.157 0.103 0.314 0.206 0.471 0.308 0.339 0.222 0.678 0.444 1.017 0.666 0.112 0.073 0.224 0.147 0.336 0.22 0.398 0.261 0.797 0.522 1.195 0.784 0.042 0.028 0.084 0.055 0.127 0.084 0.17 0.112 0.34 0.223 0.51 0.335 0.504 0.331 1.008 0.661 1.513 0.991 0.578 0.377 1.156 0.756 1.731 1.137 0.085 0.056 0.085 0.056 0.171 0.113 0.051 0.034 0.102 0.068 0.154 0.102 0.045 0.030 0.089 0.059 0.135 0.090 0.031 0.023 0.063 0.047 0.095 0.071 0 0.021 0 0.041 0 0.063-3.362 0-6.724 0-10.188 0 0-2.207 0-4.414 0-6.688z"></path>
<path fill="#41479b" style="fill: var(--color3, #41479b)" d="M18.75 5.5c3.362 0 6.724 0 10.188 0-0.221 0.221-0.434 0.379-0.695 0.543-0.096 0.062-0.193 0.123-0.289 0.185-0.079 0.050-0.079 0.050-0.159 0.102-0.309 0.198-0.615 0.399-0.922 0.6-0.068 0.045-0.137 0.089-0.207 0.135-0.636 0.416-1.272 0.834-1.908 1.251-0.521 0.342-1.041 0.683-1.562 1.025-0.112 0.073-0.224 0.147-0.336 0.22-0.339 0.222-0.678 0.444-1.018 0.666-0.155 0.101-0.309 0.202-0.464 0.304-0.076 0.050-0.152 0.099-0.228 0.149-0.407 0.266-0.813 0.534-1.216 0.805-0.035 0.024-0.070 0.047-0.107 0.072-0.166 0.112-0.333 0.224-0.498 0.336-0.058 0.039-0.116 0.078-0.175 0.118-0.051 0.034-0.101 0.069-0.154 0.104-0.123 0.073-0.123 0.073-0.248 0.073 0-2.207 0-4.414 0-6.688z"></path>
<path fill="#41479b" style="fill: var(--color3, #41479b)" d="M13.25 19.813c0 2.207 0 4.414 0 6.688-3.362 0-6.724 0-10.188 0 0.199-0.198 0.351-0.325 0.583-0.471 0.097-0.062 0.097-0.062 0.196-0.124 0.069-0.043 0.138-0.086 0.209-0.131 0.143-0.091 0.287-0.182 0.43-0.273 0.069-0.044 0.138-0.087 0.209-0.132 0.25-0.16 0.497-0.324 0.744-0.49 0.408-0.274 0.82-0.543 1.231-0.812 0.039-0.025 0.078-0.051 0.118-0.077 0.201-0.131 0.402-0.263 0.602-0.394 0.232-0.152 0.465-0.304 0.697-0.457 0.056-0.037 0.056-0.037 0.113-0.074 0.188-0.123 0.376-0.246 0.564-0.369 0.339-0.222 0.678-0.445 1.018-0.666 0.151-0.098 0.301-0.197 0.452-0.295 0.075-0.049 0.149-0.098 0.224-0.146 0.444-0.29 0.885-0.582 1.325-0.877 0.043-0.029 0.087-0.058 0.132-0.088 0.211-0.141 0.421-0.283 0.632-0.425 0.076-0.051 0.151-0.102 0.227-0.152 0.066-0.045 0.133-0.090 0.201-0.136 0.158-0.096 0.158-0.096 0.283-0.096z"></path>
<path fill="#41479b" style="fill: var(--color3, #41479b)" d="M3.063 5.5c3.362 0 6.724 0 10.188 0 0 2.207 0 4.414 0 6.688-0.252-0.101-0.428-0.192-0.648-0.342-0.066-0.044-0.132-0.088-0.199-0.134-0.035-0.024-0.070-0.047-0.106-0.072-0.189-0.128-0.379-0.255-0.569-0.382-0.039-0.027-0.079-0.053-0.12-0.080-0.417-0.28-0.837-0.555-1.257-0.83-0.076-0.050-0.152-0.099-0.228-0.149-0.153-0.1-0.305-0.2-0.458-0.299-0.341-0.223-0.681-0.446-1.022-0.669-0.188-0.124-0.377-0.247-0.566-0.37-0.266-0.174-0.532-0.349-0.798-0.523-0.153-0.1-0.306-0.201-0.459-0.301-0.076-0.050-0.152-0.099-0.228-0.149-0.405-0.266-0.811-0.531-1.217-0.796-0.619-0.404-1.237-0.808-1.854-1.216-0.047-0.031-0.095-0.062-0.144-0.094-0.107-0.071-0.212-0.144-0.317-0.218 0-0.021 0-0.041 0-0.063z"></path>
<path fill="#42489b" style="fill: var(--color6, #42489b)" d="M0 7.375c0.103 0.103 0.206 0.206 0.313 0.313 0.109 0.083 0.109 0.083 0.216 0.145 0.059 0.036 0.059 0.036 0.119 0.072 0.042 0.025 0.083 0.050 0.126 0.075 0.091 0.056 0.182 0.111 0.272 0.167 0.045 0.028 0.091 0.056 0.137 0.084 0.185 0.115 0.367 0.236 0.548 0.358 0.455 0.306 0.913 0.606 1.371 0.906 0.039 0.025 0.078 0.051 0.118 0.077 0.201 0.131 0.402 0.263 0.603 0.394 0.345 0.226 0.69 0.452 1.035 0.678 0.112 0.074 0.225 0.147 0.337 0.221 0.347 0.227 0.694 0.455 1.041 0.682 0.159 0.104 0.318 0.209 0.477 0.313 0.077 0.051 0.155 0.101 0.232 0.152 0.364 0.239 0.728 0.477 1.094 0.712 0.051 0.033 0.101 0.065 0.154 0.099 0.091 0.058 0.182 0.116 0.274 0.174 0.096 0.062 0.191 0.125 0.285 0.189 0 0.021 0 0.041 0 0.063-2.888 0-5.775 0-8.75 0 0-1.939 0-3.877 0-5.875z"></path>
<path fill="#42489b" style="fill: var(--color6, #42489b)" d="M0 18.75c2.888 0 5.775 0 8.75 0-0.231 0.185-0.454 0.349-0.699 0.512-0.040 0.026-0.080 0.053-0.12 0.080-0.573 0.379-1.148 0.753-1.723 1.129-0.409 0.267-0.818 0.535-1.227 0.803-0.076 0.050-0.152 0.1-0.229 0.15-0.153 0.1-0.307 0.201-0.46 0.301-0.228 0.149-0.456 0.299-0.683 0.448-0.037 0.024-0.075 0.049-0.113 0.074-0.187 0.123-0.375 0.246-0.562 0.368-0.354 0.232-0.708 0.464-1.061 0.696-0.167 0.11-0.334 0.219-0.501 0.329-0.080 0.052-0.159 0.105-0.239 0.157-0.11 0.073-0.221 0.145-0.331 0.217-0.063 0.041-0.126 0.082-0.19 0.125-0.464 0.299-0.464 0.299-0.611 0.299 0-1.877 0-3.754 0-5.688z"></path>
<path fill="#42489b" style="fill: var(--color6, #42489b)" d="M23.25 18.75c2.887 0 5.775 0 8.75 0 0 1.939 0 3.878 0 5.875-0.155-0.155-0.155-0.155-0.313-0.313-0.124-0.093-0.124-0.093-0.251-0.168-0.047-0.029-0.093-0.058-0.142-0.088-0.050-0.030-0.099-0.061-0.151-0.092-0.108-0.067-0.216-0.134-0.323-0.201-0.054-0.034-0.108-0.067-0.164-0.102-0.23-0.145-0.455-0.295-0.68-0.447-0.486-0.326-0.975-0.648-1.465-0.969-0.039-0.025-0.077-0.050-0.117-0.076-0.198-0.13-0.396-0.259-0.595-0.389-0.344-0.225-0.688-0.45-1.032-0.676-0.112-0.073-0.224-0.147-0.336-0.22-0.35-0.23-0.701-0.459-1.051-0.689-0.163-0.107-0.327-0.214-0.49-0.322-0.077-0.051-0.154-0.101-0.231-0.152-0.427-0.28-0.855-0.558-1.289-0.827-0.040-0.027-0.080-0.055-0.121-0.083 0-0.021 0-0.041 0-0.063z"></path>
<path fill="#42489b" style="fill: var(--color6, #42489b)" d="M31.938 7.375c0.021 0 0.041 0 0.063 0 0 1.939 0 3.877 0 5.875-2.887 0-5.775 0-8.75 0 0.352-0.281 0.352-0.281 0.521-0.395 0.038-0.025 0.076-0.051 0.115-0.077 0.040-0.027 0.081-0.054 0.122-0.081 0.043-0.029 0.086-0.057 0.13-0.087 0.091-0.061 0.182-0.121 0.273-0.182 0.136-0.090 0.271-0.181 0.407-0.271 0.485-0.323 0.973-0.64 1.468-0.946 0.335-0.207 0.662-0.424 0.988-0.644 0.378-0.253 0.758-0.501 1.138-0.75 0.058-0.038 0.058-0.038 0.117-0.076 0.159-0.104 0.318-0.208 0.477-0.312 0.288-0.188 0.576-0.377 0.863-0.566 0.121-0.079 0.242-0.159 0.364-0.238 0.077-0.050 0.153-0.101 0.23-0.151 0.073-0.048 0.145-0.095 0.218-0.143 0.103-0.067 0.205-0.135 0.308-0.202 0.25-0.162 0.503-0.317 0.758-0.47 0.145-0.089 0.145-0.089 0.19-0.282z"></path>
<path fill="#fe4d57" style="fill: var(--color7, #fe4d57)" d="M30.678 5.701c0.294 0.107 0.539 0.332 0.76 0.549 0 0.041 0 0.082 0 0.125-0.131 0.090-0.262 0.173-0.398 0.254-0.472 0.288-0.936 0.587-1.398 0.891-0.071 0.046-0.141 0.093-0.212 0.139-0.14 0.092-0.279 0.183-0.419 0.275-0.281 0.184-0.563 0.368-0.846 0.551-0.050 0.033-0.1 0.065-0.152 0.099-0.1 0.065-0.2 0.13-0.3 0.194-0.258 0.168-0.517 0.336-0.775 0.504-0.104 0.068-0.208 0.135-0.312 0.203-0.211 0.137-0.422 0.274-0.632 0.411-0.53 0.345-1.061 0.689-1.592 1.033-0.339 0.219-0.677 0.439-1.015 0.658-0.052 0.034-0.104 0.067-0.157 0.102-0.271 0.176-0.542 0.352-0.813 0.529-0.055 0.036-0.11 0.071-0.166 0.108-0.103 0.067-0.206 0.134-0.31 0.202-0.097 0.063-0.194 0.125-0.292 0.187-0.153 0.098-0.153 0.098-0.303 0.219-0.509 0.379-0.973 0.37-1.577 0.345-0.093-0.002-0.186-0.004-0.28-0.006-0.226-0.005-0.452-0.012-0.677-0.021 0.202-0.209 0.412-0.359 0.66-0.508 0.487-0.297 0.96-0.612 1.434-0.93 0.487-0.326 0.974-0.65 1.473-0.957 0.55-0.339 1.088-0.697 1.628-1.051 0.276-0.18 0.552-0.36 0.828-0.539 0.051-0.033 0.103-0.067 0.155-0.101 0.369-0.239 0.738-0.478 1.107-0.717 0.396-0.256 0.792-0.513 1.187-0.771 0.37-0.24 0.74-0.48 1.11-0.719 0.267-0.172 0.533-0.346 0.799-0.519 0.098-0.064 0.098-0.064 0.199-0.13 0.13-0.085 0.26-0.17 0.389-0.255 0.059-0.039 0.118-0.077 0.179-0.117 0.053-0.035 0.106-0.069 0.16-0.105 0.199-0.127 0.318-0.167 0.557-0.131z"></path>
<path fill="#fe4d57" style="fill: var(--color7, #fe4d57)" d="M13.188 18.75c-0.218 0.179-0.442 0.342-0.677 0.499-0.034 0.023-0.069 0.046-0.104 0.069-0.111 0.074-0.222 0.148-0.332 0.221-0.038 0.025-0.076 0.051-0.115 0.077-0.463 0.308-0.928 0.612-1.401 0.904-0.55 0.34-1.089 0.697-1.629 1.051-0.271 0.178-0.543 0.354-0.815 0.531-0.102 0.066-0.204 0.133-0.307 0.199-0.076 0.049-0.076 0.049-0.153 0.099-0.157 0.102-0.315 0.205-0.472 0.307-0.53 0.345-1.061 0.689-1.593 1.033-0.551 0.357-1.101 0.715-1.652 1.072-0.107 0.069-0.213 0.139-0.32 0.208-0.053 0.034-0.105 0.068-0.159 0.104-0.104 0.068-0.209 0.136-0.314 0.203-0.255 0.165-0.507 0.331-0.757 0.504-0.048 0.032-0.095 0.065-0.144 0.098-0.089 0.061-0.178 0.123-0.266 0.186-0.212 0.143-0.318 0.197-0.58 0.2-0.23-0.071-0.367-0.157-0.55-0.311-0.054-0.044-0.108-0.089-0.164-0.135-0.040-0.039-0.080-0.079-0.121-0.119 0-0.041 0-0.082 0-0.125 0.095-0.076 0.095-0.076 0.23-0.161 0.050-0.032 0.1-0.064 0.151-0.097 0.055-0.035 0.11-0.069 0.166-0.105 0.115-0.074 0.231-0.148 0.346-0.221 0.089-0.057 0.089-0.057 0.18-0.115 0.272-0.174 0.543-0.351 0.814-0.527 0.424-0.276 0.849-0.551 1.274-0.826 0.343-0.222 0.685-0.444 1.027-0.666 0.385-0.25 0.77-0.501 1.156-0.75 0.594-0.384 1.188-0.77 1.781-1.156 0.212-0.138 0.424-0.276 0.637-0.414 0.078-0.051 0.078-0.051 0.157-0.102 0.243-0.158 0.487-0.316 0.731-0.474 0.044-0.028 0.088-0.057 0.133-0.086 0.088-0.056 0.175-0.112 0.264-0.167 0.226-0.143 0.433-0.29 0.635-0.467 0.881-0.737 1.856-0.616 2.944-0.541z"></path>
<path fill="#fe4d57" style="fill: var(--color7, #fe4d57)" d="M19.688 18.75c1.23-0.097 2.113-0.121 3.105 0.697 0.247 0.197 0.515 0.361 0.782 0.529 0.104 0.068 0.208 0.135 0.313 0.203 0.454 0.295 0.909 0.589 1.363 0.883 0.825 0.533 1.649 1.068 2.473 1.604 0.54 0.351 1.080 0.702 1.621 1.052 0.396 0.256 0.792 0.513 1.188 0.77 0.051 0.033 0.102 0.066 0.154 0.1 0.336 0.218 0.67 0.439 1.002 0.662-0.138 0.374-0.353 0.652-0.688 0.875-0.263-0.128-0.507-0.281-0.754-0.438-0.051-0.032-0.102-0.064-0.155-0.098-0.504-0.32-1-0.652-1.495-0.985-0.446-0.299-0.894-0.593-1.351-0.875-0.55-0.34-1.088-0.697-1.629-1.051-0.271-0.178-0.543-0.354-0.815-0.531-0.102-0.066-0.204-0.133-0.307-0.199-0.050-0.033-0.101-0.065-0.153-0.099-0.157-0.102-0.315-0.205-0.472-0.307-0.487-0.317-0.975-0.634-1.463-0.949-1.632-1.055-1.632-1.055-2.328-1.516-0.040-0.026-0.080-0.052-0.121-0.079-0.091-0.060-0.181-0.123-0.27-0.186 0-0.021 0-0.041 0-0.063z"></path>
<path fill="#fe4d57" style="fill: var(--color7, #fe4d57)" d="M1.125 6.063c0.159 0.096 0.314 0.194 0.469 0.297 0.096 0.063 0.191 0.126 0.287 0.188 0.075 0.050 0.075 0.050 0.152 0.1 0.259 0.171 0.52 0.339 0.78 0.508 0.106 0.069 0.212 0.138 0.318 0.207 0.279 0.181 0.558 0.362 0.838 0.543 0.439 0.284 0.878 0.569 1.316 0.854 0.332 0.216 0.664 0.431 0.996 0.646 0.648 0.419 1.295 0.84 1.941 1.26 0.583 0.379 1.165 0.758 1.749 1.135 0.243 0.157 0.487 0.315 0.73 0.473 0.056 0.036 0.111 0.072 0.168 0.11 0.107 0.070 0.214 0.139 0.321 0.209 0.279 0.182 0.56 0.36 0.846 0.533 0.029 0.020 0.059 0.040 0.089 0.061 0 0.021 0 0.041 0 0.063-1.513 0.166-2.39-0.040-3.577-0.989-0.22-0.172-0.449-0.318-0.689-0.46-0.589-0.361-1.165-0.743-1.743-1.121-0.271-0.178-0.543-0.354-0.815-0.531-0.076-0.050-0.076-0.050-0.154-0.1-0.102-0.066-0.204-0.133-0.306-0.199-0.259-0.169-0.519-0.337-0.778-0.506-0.051-0.033-0.103-0.067-0.156-0.101-0.263-0.171-0.526-0.342-0.788-0.512-0.955-0.621-1.91-1.24-2.868-1.855 0.038-0.228 0.135-0.364 0.277-0.543 0.039-0.049 0.077-0.098 0.117-0.149 0.167-0.191 0.248-0.197 0.481-0.12z"></path>
</symbol>
  </defs>
</svg>
