
<svg version="1.1" xmlns="http://www.w3.org/2000/svg" width="32" height="32" viewBox="0 0 32 32">
<path fill="#FFFFFF" stroke="#FFFFFF" stroke-width="0.5" d="M12.395 2.502v1.982l-1.289-0.043c-0.711-0.018-1.629-0.055-2.036-0.079l-0.748-0.036v1.903h-3.763c-3.532 0-3.763 0.006-3.787 0.103-0.024 0.103 1.301 5.501 3.672 15.002l0.991 3.951 0.061 6.2h4.863c2.675 0 7.319-0.006 10.322-0.018l5.465-0.012-0.036-2.997-0.036-2.991 0.614-2.492c0.34-1.374 1.404-5.659 2.371-9.537 1.337-5.373 1.732-7.063 1.684-7.142-0.055-0.091-0.176-0.097-0.985-0.085-0.505 0.012-2.237 0.024-3.848 0.036l-2.936 0.018v-1.678h-4.316l-0.012-1.599c-0.012-0.875-0.012-1.793-0.006-2.036l0.012-0.438h-6.255v1.988zM18.291 2.703v1.884h-1.599l0.043 2.808c0.018 1.55 0.049 5.355 0.067 8.467 0.018 3.106 0.049 6.152 0.067 6.766l0.036 1.106h0.31l-0.036-5.854c-0.024-3.216-0.061-7.452-0.085-9.422l-0.036-3.568h1.216l0.036 1.927c0.024 1.058 0.043 2.778 0.043 3.817s0.018 3.501 0.043 5.459l0.036 3.568h0.359l-0.036-3.301c-0.018-1.811-0.055-5.136-0.073-7.386l-0.036-4.085h3.963v1.398h-2.936l0.036 3.234c0.024 1.781 0.061 5.848 0.085 9.027l0.036 5.793h-8.145l-0.036-5.124c-0.024-2.814-0.061-6.875-0.085-9.027l-0.036-3.902h-0.736c-0.407 0-1.039-0.018-1.41-0.036l-0.675-0.043-0.043-0.729c-0.018-0.407-0.018-0.754 0.006-0.778 0.030-0.024 0.875-0.012 1.878 0.024l1.836 0.061 0.036 1.070c0.018 0.59 0.055 3.933 0.073 7.434l0.036 6.37h0.365l-0.036-4.972c-0.018-2.729-0.055-6.066-0.073-7.416l-0.036-2.444h1.398l0.036 0.559c0.018 0.31 0.049 3.258 0.067 6.553s0.049 7.294 0.073 8.887l0.036 2.906h0.346l-0.036-2.875c-0.018-1.574-0.055-5.872-0.085-9.55-0.030-3.671-0.073-6.693-0.091-6.717-0.024-0.018-0.419-0.049-0.887-0.055l-0.845-0.024v-3.696h5.532v1.884zM30.387 6.545c0 0.043-0.693 2.869-1.544 6.279-0.845 3.41-1.836 7.398-2.2 8.863l-0.663 2.656h-5.787l-0.036-4.577c-0.024-2.51-0.061-6.504-0.085-8.869l-0.036-4.292 1.27-0.024c0.699-0.012 1.276-0.018 1.289-0.012 0.018 0.006 0.134 12.242 0.134 14.868v2.298h0.383l-0.043-4.82c-0.018-2.644-0.055-6.516-0.079-8.595l-0.036-3.787 2.881-0.018c1.587-0.006 3.258-0.018 3.72-0.030 0.632-0.006 0.833 0.006 0.833 0.061zM8.334 10.119c0.024 1.957 0.061 5.817 0.085 8.583l0.036 5.033h0.371l-0.036-3.118c-0.024-1.708-0.061-5.574-0.079-8.589l-0.043-5.471 1.24 0.024c0.681 0.012 1.246 0.036 1.258 0.043 0.012 0.012 0.055 4 0.091 8.869l0.073 8.85-2.845 0.012c-1.568 0.012-2.869 0.006-2.899-0.012-0.024-0.018-0.462-1.702-0.966-3.738-2.121-8.547-3.471-14.017-3.471-14.042 0-0.018 1.605-0.024 3.574-0.018l3.568 0.018 0.043 3.556zM25.719 27.881c-0.006 1.678-0.024 3.058-0.030 3.064s-4.48 0.030-9.932 0.055l-9.926 0.036-0.006-2.784c-0.006-1.532-0.018-2.906-0.018-3.058-0.006-0.152 0-0.292 0.012-0.322 0.012-0.024 4.498-0.043 9.969-0.043h9.951l-0.018 3.051z"></path>
<!-- <path fill="#FFFFFF" stroke="#FFFFFF" stroke-width="0.5" d="M20.151 25.923c-0.632 0.188-0.991 1.313-0.839 2.583 0.085 0.681 0.225 1.033 0.523 1.289 0.492 0.438 1.149 0.274 1.459-0.365s0.346-2.128 0.067-2.802c-0.14-0.328-0.438-0.632-0.687-0.705-0.255-0.067-0.286-0.067-0.523 0zM20.625 26.434c0.146 0.061 0.243 0.17 0.346 0.377 0.134 0.274 0.146 0.371 0.146 1.179 0 0.827-0.012 0.9-0.152 1.155-0.182 0.322-0.395 0.462-0.632 0.401-0.468-0.116-0.669-0.669-0.632-1.732 0.024-0.827 0.158-1.204 0.492-1.368 0.237-0.116 0.188-0.116 0.432-0.012z"></path> -->
<!-- <path fill="#FFFFFF" stroke="#FFFFFF" stroke-width="0.5" d="M7.288 26.166v0.243h0.912v3.586h0.425v-3.586h0.851v-0.486h-2.188v0.243z"></path> -->
<!-- <path fill="#FFFFFF" stroke="#FFFFFF" stroke-width="0.5" d="M9.902 27.96v2.036h1.83l-0.018-0.225-0.018-0.231-1.435-0.036 0.036-1.362 1.185-0.036v-0.413l-1.185-0.036-0.018-0.626-0.018-0.62h1.404v-0.486h-1.763v2.036z"></path> -->
<!-- <path fill="#FFFFFF" stroke="#FFFFFF" stroke-width="0.5" d="M11.969 25.996c0 0.043 0.188 0.498 0.419 1.015l0.419 0.936-0.109 0.249c-0.061 0.14-0.261 0.59-0.45 1.003-0.188 0.419-0.34 0.766-0.34 0.778s0.103 0.018 0.237 0.018h0.231l0.322-0.729c0.176-0.401 0.34-0.729 0.359-0.729s0.17 0.316 0.34 0.705c0.164 0.389 0.334 0.717 0.371 0.736 0.043 0.012 0.152 0.018 0.255 0.006l0.176-0.018-0.9-2.018 0.425-0.966c0.237-0.529 0.432-0.985 0.432-1.015 0-0.024-0.103-0.043-0.225-0.030-0.225 0.018-0.231 0.018-0.523 0.687-0.158 0.365-0.316 0.687-0.34 0.717-0.024 0.024-0.182-0.28-0.353-0.669-0.31-0.711-0.31-0.717-0.529-0.735-0.152-0.012-0.219 0.006-0.219 0.061z"></path> -->
<!-- <path fill="#FFFFFF" stroke="#FFFFFF" stroke-width="0.5" d="M14.4 26.166v0.243h0.851v3.586h0.425v-3.586h0.912v-0.486h-2.188v0.243z"></path> -->
<!-- <path fill="#FFFFFF" stroke="#FFFFFF" stroke-width="0.5" d="M16.954 27.954v2.042h0.359l0.018-0.808 0.018-0.802 0.614-0.036 0.304 0.808 0.298 0.808 0.231 0.018c0.122 0.012 0.225 0.012 0.225 0s-0.146-0.401-0.328-0.869l-0.328-0.851 0.17-0.17c0.505-0.498 0.419-1.732-0.14-2.030-0.134-0.073-0.383-0.109-0.815-0.128l-0.626-0.024v2.042zM18.139 26.47c0.328 0.128 0.444 0.796 0.195 1.161-0.116 0.176-0.188 0.213-0.48 0.261-0.541 0.085-0.535 0.091-0.535-0.754v-0.729h0.328c0.182 0 0.401 0.024 0.492 0.061z"></path> -->
<!-- <path fill="#FFFFFF" stroke="#FFFFFF" stroke-width="0.5" d="M22.060 27.954v2.042h0.425v-3.009l0.687 1.501 0.681 1.508h0.395v-4.073h-0.365l-0.006 1.501c0 1.021-0.018 1.477-0.061 1.416-0.036-0.049-0.346-0.723-0.693-1.489l-0.632-1.398-0.213-0.018-0.219-0.018v2.036z"></path> -->
</svg>
