
<svg version="1.1" xmlns="http://www.w3.org/2000/svg" width="32" height="32" viewBox="0 0 32 32">
<path fill="#FFFFFF" stroke="#FFFFFF" stroke-width="0.5" d="M12.395 2.502v1.982l-1.289-0.043c-0.711-0.018-1.629-0.055-2.036-0.079l-0.748-0.036v1.903h-3.763c-3.532 0-3.763 0.006-3.787 0.103-0.024 0.103 1.301 5.501 3.672 15.002l0.991 3.951 0.061 6.2h4.863c2.675 0 7.319-0.006 10.322-0.018l5.465-0.012-0.036-2.997-0.036-2.991 0.614-2.492c0.34-1.374 1.404-5.659 2.371-9.537 1.337-5.373 1.732-7.063 1.684-7.142-0.055-0.091-0.176-0.097-0.985-0.085-0.505 0.012-2.237 0.024-3.848 0.036l-2.936 0.018v-1.678h-4.316l-0.012-1.599c-0.012-0.875-0.012-1.793-0.006-2.036l0.012-0.438h-6.255v1.988zM18.291 2.703v1.884h-1.599l0.043 2.808c0.018 1.55 0.049 5.355 0.067 8.467 0.018 3.106 0.049 6.152 0.067 6.766l0.036 1.106h0.31l-0.036-5.854c-0.024-3.216-0.061-7.452-0.085-9.422l-0.036-3.568h1.216l0.036 1.927c0.024 1.058 0.043 2.778 0.043 3.817s0.018 3.501 0.043 5.459l0.036 3.568h0.359l-0.036-3.301c-0.018-1.811-0.055-5.136-0.073-7.386l-0.036-4.085h3.963v1.398h-2.936l0.036 3.234c0.024 1.781 0.061 5.848 0.085 9.027l0.036 5.793h-8.145l-0.036-5.124c-0.024-2.814-0.061-6.875-0.085-9.027l-0.036-3.902h-0.736c-0.407 0-1.039-0.018-1.41-0.036l-0.675-0.043-0.043-0.729c-0.018-0.407-0.018-0.754 0.006-0.778 0.030-0.024 0.875-0.012 1.878 0.024l1.836 0.061 0.036 1.070c0.018 0.59 0.055 3.933 0.073 7.434l0.036 6.37h0.365l-0.036-4.972c-0.018-2.729-0.055-6.066-0.073-7.416l-0.036-2.444h1.398l0.036 0.559c0.018 0.31 0.049 3.258 0.067 6.553s0.049 7.294 0.073 8.887l0.036 2.906h0.346l-0.036-2.875c-0.018-1.574-0.055-5.872-0.085-9.55-0.030-3.671-0.073-6.693-0.091-6.717-0.024-0.018-0.419-0.049-0.887-0.055l-0.845-0.024v-3.696h5.532v1.884zM30.387 6.545c0 0.043-0.693 2.869-1.544 6.279-0.845 3.41-1.836 7.398-2.2 8.863l-0.663 2.656h-5.787l-0.036-4.577c-0.024-2.51-0.061-6.504-0.085-8.869l-0.036-4.292 1.27-0.024c0.699-0.012 1.276-0.018 1.289-0.012 0.018 0.006 0.134 12.242 0.134 14.868v2.298h0.383l-0.043-4.82c-0.018-2.644-0.055-6.516-0.079-8.595l-0.036-3.787 2.881-0.018c1.587-0.006 3.258-0.018 3.72-0.030 0.632-0.006 0.833 0.006 0.833 0.061zM8.334 10.119c0.024 1.957 0.061 5.817 0.085 8.583l0.036 5.033h0.371l-0.036-3.118c-0.024-1.708-0.061-5.574-0.079-8.589l-0.043-5.471 1.24 0.024c0.681 0.012 1.246 0.036 1.258 0.043 0.012 0.012 0.055 4 0.091 8.869l0.073 8.85-2.845 0.012c-1.568 0.012-2.869 0.006-2.899-0.012-0.024-0.018-0.462-1.702-0.966-3.738-2.121-8.547-3.471-14.017-3.471-14.042 0-0.018 1.605-0.024 3.574-0.018l3.568 0.018 0.043 3.556zM25.719 27.881c-0.006 1.678-0.024 3.058-0.030 3.064s-4.48 0.030-9.932 0.055l-9.926 0.036-0.006-2.784c-0.006-1.532-0.018-2.906-0.018-3.058-0.006-0.152 0-0.292 0.012-0.322 0.012-0.024 4.498-0.043 9.969-0.043h9.951l-0.018 3.051z"></path>
</svg>
